<?xml version="1.0" encoding="UTF-8"?>
<svg id="Layer_1" data-name="Layer 1" xmlns="http://www.w3.org/2000/svg" viewBox="0 0 319.78 143.79">
  <defs>
    <style>
      .cls-1 {
        fill: #dbbec6;
      }

      .cls-2 {
        fill: #e4e9e0;
      }
    </style>
  </defs>
  <rect class="cls-1" width="319.78" height="143.79"/>
  <g>
    <path class="cls-2" d="M32.31,126.93s-.02.01-.03.02c.02,0,.04,0,.07.01l-.03-.03Z"/>
    <path class="cls-2" d="M40.41,124.26s.07-.01.11-.02c-.01,0-.02-.01-.03-.02,0,0-.01,0-.02,0-.02.01-.04.02-.06.04Z"/>
    <path class="cls-2" d="M318.59,88.45c.53-.03.91.05,1.19.19v-.54c-1.08-.2-1.94-.2-2.74.17-.84.39-.75.94-1.15,1.42-1.89-.53-1.91-.53-3.48-.03q-1.41.45-2.78-.06c-2.04-.76-4.42-.39-5.11.76-.27.46.11.89.06,1.33-2.04.32-2.61.4-3.01.82-.53.56-1.5.68-2.63.82-3.18.39-5.65,1.65-5.95,2.98-.46,2.09,3.52,3.73,8.49,3.47.15.84.18,1.72,1.52,2.35.12.18.29.35.6.45-.02.03-.05.06-.1.07-1.56.43-2.91.96-3.83,1.77-.93-.55-1.37-1.07-2.24-1.45-1.39-.61-2.92-.51-3.83.26-.4.34-.59.72-.62,1.11-.11,1.72,1.07,3.3,2.71,4.82-.07.25.98.74,1.26.83.08.03.16.05.24.07-.01.04-.06.09-.17.14-.61.3-1.01.45-1.44.43-.14-.12-.36-.24-.58-.34-.13-.06-.74-.3-1.17-.37-.32-.09-.72-.09-1.05-.02-1.23.26-1.71-.06-2.41-.4-1.75-.85-3.87-.81-5.55.06-.86.44-1.55.95-1.67,1.54-.1.46-.42.71-1.53.73-.9.02-1.59.27-2.12.59-.88.54-.93,1.17-.57,1.76,1.22,1.98,3.21,3.78,6.73,5.17,1.02.4,2.32.59,3.56.93-3.75,2.88-6.4,5.93-9.2,9.09-1.41-1.34-3.44-1.99-6.6-1.69-.41.04-.69-.05-.85-.21-.23-.24-.53-.46-.95-.64-1.98-.87-4.51-.58-5.33.6-.22.32-.26.63-.22.95.04.35-.02.59-.96.72-1.1.14-1.65.6-2.02,1.06-.54.68-.67,1.39-.29,2.09,1.24,2.28,3.91,4.03,9.1,4.85-2.15,2.19-3.8,4.46-5.74,6.67h1.45c1.62-1.99,3.09-4,4.42-6.04.21-.32.06-.8,1.3-.88.59-.04.11-.24,0-.35-1.79-1.69-2.41-3.49-2.66-5.33-.08-.54-.07-1.09.36-1.62.71-.88,2.11-1.41,3.9-1.43,1.67-.02,3.23.43,3.93,1.26.98,1.17,1.44,2.32-.2,3.51-1.28.93-2.04,1.98-2.54,3.06-.15.32-.23.63-.15.98.7-.24.69-.58.9-.88,1.02-1.41,2.33-2.77,4.31-3.97,1.25-.76,2.73-1.4,4.51-1.91.79-.23,1.63-.4,2.58-.44,1.61-.06,2.64.31,2.74,1.03.14,1.05-.74,1.96-2.27,2.73-3.28,1.64-6.98,3.05-11.55,3.93-.19.04-.34.11-.69.23,1.4.05,2.46-.18,3.48-.4,3.2-.69,5.97-1.64,8.47-2.77,1.21-.55,2.41-1.1,3.91-1.5.93-.24,1.89-.46,2.99-.5,1.74-.07,2.29.26,1.63.97-.37.39-.92.73-1.58,1.03-3.85,1.73-8.3,3.05-13.37,3.94-2.35.41-4.69.5-6.86-.34-.05.13-.08.25-.12.35-.13.03-.28.12-.42.29-.09.1-.17.19-.25.29-.23.18-.38.38-.58.56-1.52,1.38-2.92,2.78-4.26,4.2h1.32c1.21-1.42,2.41-2.84,3.66-4.25.04-.05.09-.09.13-.14.19-.16.38-.33.55-.5.11-.1.15-.2.16-.27.21-.04.43-.04.72.05,1.65.49,3.64.57,5.49.76,2.16.22,4.44.19,6.57-.17,3.58-.59,6.43-1.57,7.45-3.31.27-.46.61-.83,1.33-1.17.79-.37,1.46-.79,1.75-1.31.6-1.05-.84-1.8-3.23-1.68-.92.05-1.8.19-2.65.37-.47.1-.89.27-1.54.27,1.89-2.29.34-3.55-5.02-3.15-.01-.03-.05-.07-.03-.09,3.03-2.56,5.44-5.24,7.72-7.94.3-.36.66-.45,1.59-.37,5.33.46,10.53.14,15.59-.69,1.76-.29,3.4-.68,4.67-1.33,2.06-1.04,1.54-2.07-1.31-2.59-.9-.17-1.87-.27-2.86-.41.28-.23.55-.42.75-.63.68-.66.49-1.33-.66-1.77-1.23-.47-1.45-1.11-2.27-1.71.69-.03,1.18-.05,1.68-.07,3-.17,5.92-.44,8.59-1.12.03,0,.07-.02.1-.03v-.66c-1.46.47-3.07.82-4.8.99-2.81.29-5.53.83-8.55.66-.73-.04-1.53.13-2.43.21-.17-.34-.59-.67-.2-1.01.92-.08,1.8-.22,2.61-.43.3-.06.6-.12.89-.17,3.15-.62,6.12-1.39,8.79-2.36,1.15-.42,2.37-.56,3.69-.48v-.39c-.38-.03-.79-.05-1.23-.09.45-.25.87-.48,1.23-.73v-2.77c-3.27.37-7.2-1.17-6.66-2.68.11-.3.44-.4,1.01-.31.6.09,1.17.24,1.74.36.97.21,1.94.39,3.05.41.3,0,.59,0,.86-.02v-.6c-.47.04-1.02.02-1.61-.05-1.02-.12-2-.34-2.97-.55-1.23-.26-2.26-.23-3.33.21-1.56.64-2.71.54-3.79-.27-.37-.27-.62-.58-.95-.86-.39-.34-.81-.67-1.58-.85.06-.23.32-.46.62-.66.57-.39,1.25-.74,2.03-1.04-.27-.01-.5.07-.7.15-.66.26-1.25.55-1.8.86-.03.03-.06.06-.09.1-.06.02-.13.04-.18.06.09-.05.18-.11.27-.16.04-.04.08-.09.12-.13l-.46.31c-.47.19-.7.39-1,.56-.71.41-1.48.78-2.55,1.01-1.91.4-3.86.26-5.27-.44-1.72-.85-2.91-1.77-1.76-2.97,1.19-1.23,3.27-1.91,6.25-2.03,2.29-.09,4.37.23,6.42.63.91.18,1.76.41,2.79.5-1.47-.78-2.6-1.02-8.46-1.81,1.48-.99,2.26-1.07,4.95-.52-1.76-.52-1.91-1.24-1.32-2.04.61-.84,2.16-1.04,3.65-.46,1.02.4,1.53.91,1.56,1.53.02.45-.24.89.17,1.34.16-.72.98-1.4.37-2.15-.25-.31.02-.48.72-.55.2-.02.39-.08.58-.13,1.9-.45,2.21-.39,2.72.52.47.86.24,1.72,0,2.58-.08.28-.24.56-.12.9.69-.49.89-1.01,1.04-1.5.28-.91,1.74-1.29,3.34-1.59.12-.02.23-.04.34-.05v-.34c-.26.01-.52.03-.77.05-.54.05-1.05.16-1.76.28-.33-.64-.38-1.18-.11-1.71.18-.35.55-.68,1.45-.74ZM271.84,135.92c.16.25,1,.49.31.76-.59.23-1.19-.06-1.78-.14-.2-.03-.39-.09-.55-.15-3.75-1.44-6.17-3.19-6.02-5.49.04-.7.56-1.31,2.28-1.66.49.27.57.53.76.77,1.57,1.99,3.71,3.87,5,5.91ZM271.86,128.01c-2.58.88-2.62,2.12-2.48,3.4,0,.08-.06.16-.15.42-1.17-1.35-2-2.55-1.94-3.85.04-.69.68-1.12,1.68-1.2.9-.08,2.49.35,2.98.79.18.16.23.32-.09.43ZM282.21,139c4.61-.79,8.77-1.92,12.88-3.37-1.45,2.2-6.88,3.59-12.88,3.37ZM300.26,104.55c1.48-.92,3.26-1.63,5.99-1.57,1.67.03,2.65.45,2.77,1.2.11.64.05,1.29-.95,1.82-2.2,1.19-3.98,2.49-5.46,3.93-.08-1.7-.96-3.3-2.44-4.84-.19-.2-.19-.37.09-.54ZM296.39,109.17c-.78-.91-1.43-1.84-1.85-2.8-.28-.64-.36-1.28-.28-1.92.03-.26.1-.51.34-.75.6-.6,1.21-.65,2.18-.14.99.52,1.63,1.13,2.26,1.74,1.43,1.37,2.44,2.8,2.69,4.42-1.24-.1-2.38.1-3.52.11-.04-.03-.12-.04-.2-.06-.3-.06-1.1-.4-1.64-.6ZM293.19,110.2c.29.02.54.11.83.14.05.02.09.04.12.05.21.12.32.27.52.4.16.36-.16.54-1.38,1.21-.38-.43-.75-.81-1.07-1.2-.39-.48-.08-.66.99-.59ZM283.61,111.37c.51-.64,1.2-1.24,2.39-1.68,1.19-.44,2.11-.43,3.21.06.45.2.88.43,1.14.69,1.86,1.79,3.25,3.63,3.07,5.64-.05.57-.32,1.14-.49,1.71,1.66-1.15,1.49-2.43,1.24-3.71-.03-.13-.16-.25-.18-.38-.09-.55-.79-1.08.27-1.64,1.46-.76,2.85-1.54,5.14-1.78,1.68-.17,2.78.19,2.99.97.08.31.07.65-.09.95-1.42,2.63-4.36,4.92-7.98,7.05-.29.17-.64.35-1.39.4.21-.56-.11-1.09-.3-1.63-2.61-1.05-4.57-2.25-5.27-3.85-.39-.89-1.29-1.71-3.23-2.17-.61-.15-.77-.35-.55-.64ZM286.44,119.05c-3.28-1.35-4.98-3.11-6.16-4.99-.11-.18-.09-.39-.06-.58.18-.94,1.97-1.31,3.7-.77.72.23,1.24.54,1.58.9.36.38.72.77.96,1.17.68,1.12,1.93,2.06,3.91,2.82,1.62.62,2.57,1.36,1.47,2.34-2.12.1-3.89-.27-5.41-.89ZM293.22,121.39c-2.87,2.52-5.34,5.12-7.84,7.72-.39.4-.84.72-1.65.97-1.17.36-2.07.86-3.2,1.41-.43-.99-.25-1.76.73-2.58,2.86-2.38,4.93-4.92,7.2-7.42.7-.77,1.33-1.44,3.38-1.54,0,0-.02.02-.03.03,2.07.33,2.33.61,1.4,1.42ZM313.61,116.78c2.18.37,2.46.99.78,1.74-.55.25-1.18.48-1.86.64-5.25,1.25-10.87,1.65-16.75,1.44-.73-.03-1.4-.13-1.99-.31-.42-.13-.54-.32-.05-.46,1.62-.46,2.66-1.15,3.79-1.81.41-.24,1-.36,1.57-.48,3.12-.69,6.4-1.07,9.89-1.05,1.57,0,3.14.06,4.63.31ZM305.13,111.97c1.18-.12,2.28-.03,3.37.15.29.05.54.15.78.25.23.15.41.3.5.48.01.14-.02.28.01.37-.15.33-.78.58-1.44.76-.7.18-1.48.31-2.08.56.5.01.98-.1,1.42-.22.79-.21,1.56-.43,2.31-.66.14-.04.28-.09.33-.16.03-.04.02-.08,0-.11.6.09.9.27,1.13.51.4.42.7.85.31,1.31-.36.42-.86.71-2.03.69-3.35-.04-6.53.3-9.56.94-.18.04-.39.09-.63-.02-.11-.26.38-.44.63-.65,1.38-1.13,2.77-2.26,3.35-3.54.19-.42.75-.56,1.6-.65ZM318.16,104c1.11.08,1.62.4,1.33.89-.37.64-1.26,1.15-2.25,1.62-1.97.94-4.26,1.71-6.7,2.38-1.39.38-2.81.74-4.24,1.1-.23.02-.47.06-.68.1-.54.11-1.05.25-1.61.34-.12.02-.36.02-.6.03-.04-.03-.06-.07-.07-.12-.03-.2.2-.37.41-.54,1.74-1.45,3.76-2.8,6.4-3.95,1.82-.79,3.86-1.43,6.33-1.73.55-.07,1.1-.15,1.68-.11ZM312.3,100.81c.19.5.1,1.05.78,1.51.63.43,1.52.75,2.43,1.15-1.91.48-3.76.91-5.52,1.51.36-.8-.47-1.45-.85-2.14.15-.12.32-.26.49-.42.46-.2.6-.5.71-.8.19-.47.75-.74,1.96-.81ZM303.2,99.23c.87-.28,1.48-.7,2.07-1.11.06.13.24.24.43.35-.05-.05-.08-.1-.1-.15.07.07.14.14.2.21-.03-.02-.07-.04-.1-.06.06.06.14.12.22.18.37.38.73.76,1.06,1.15.58.68,1.75,1.06,3.15,1.32-.14.38-.58.68-.88,1-.25.18-.5.36-.71.54-.03,0-.06,0-.09,0-1.29-.28-2.69-.18-4.04-.23-.36-.15-.68-.32-.98-.49-.45-.55-.96-1.09-1.04-1.7-.06-.41-.02-.73.82-1.01ZM318.41,96.08c-.57-.16-1.13-.37-2.16-.38,1.33.48,2.53.83,3.47,1.31.02.01.04.02.06.03v-.63c-.47-.09-.93-.2-1.38-.33ZM313.21,46.41c-1.05-.04-1.97.12-2.81.39-.57.18-1.1.39-1.7.6-.24-.73-.26-.74.66-1.1,2.02-.8,3.73-1.7,4.72-2.83.78-.9.94-1.83-.07-2.72-1.41-1.24-4.42-1.43-6.57-.43-1.12.52-1.79,1.16-2.33,1.83-.64.79-1.01,1.61-1.06,2.45-.02.28-.03.58-.92.6-.38-.32.05-.59.11-.86.09-.42.11-.84-.31-1.23-.65-.61-1.85-.73-2.95-.28-.49.2-.79.45-.98.74-.39.62-.42,1.21-.04,1.77-.03.35.55.91.85,1.1-.28.66-1.35,1.15-2.17,1.91-.28-.84-.41-1.45-1.17-1.97-.57-.39-1.28-.72-2.42-.64-1.19.08-1.66.51-1.77.97-.34,1.33,0,2.6,1.04,3.8,0,0,0,.02-.01.03-.24.49.58,1.24,1.16,1.63.05.04.11.07.18.1-.33.31-1.31.42-1.85.69-.49-.3-.47-.6-.65-.88-.35-.56-.84-1.1-1.86-1.49-1.35-.52-2.72-.38-3.44.35-.38.38-.56.8-.58,1.22-.06,1.58.37,3.13,1.13,4.67.09.19.18.38.41.54.16.17.41.37.64.53.11.1.16.21-.15.33-.81.32-1.61.64-2.7,1.07.15-.72.32-1.26.38-1.8.1-.91-.02-1.81-1.3-2.57-1.34-.8-3.28-.67-4.15.25-.14.15-.27.3-.32.46-.52,1.76-.02,3.42,1.72,4.96.25.3.52.6.75.89.04.05.09.11.15.16-.05.68-.73,1.33-.54,2.14-.57-.34-.44-.57-.49-.78-.15-.67-.19-1.35-.49-2-.26-.58-.55-1.24-2.25-1.36-1.21-.08-2.38.35-2.83,1.21-1.02,1.96-.82,3.89,1.56,5.65.33.24.47.44.45.64,0,0-.01,0-.02.01-.64.37-1.29.75-1.6,1.19-1.41,1.01-2.78,2.02-4.16,3.03-3.51,2.57-6.82,5.2-10.96,7.59-.33.19-.46.5-1.3.53,1.07-.92,2.12-1.8,3.09-2.69.6-.55,1.12-1.11,1.04-1.75-.1-.85-1.35-1.2-3.08-.84-1.06.23-1.9.59-2.5,1.03-3.48,2.53-5.5,5.21-3.99,8.23.08.17.1.32.08.48-.08.11-.17.22-.27.33-.36.14-.52.34-.75.52-1.42,1.08-2.8,2.17-4.2,3.25-5.02,3.86-8.68,8.02-12.87,12.06-.66.64-1.38,1.17-2.92,1.42-.52.09-.99.26-1.41.43-1.75.69-2.99,1.48-2.13,2.61.05.06.07.12.08.17-.01,0-.02-.01-.03-.02-.21.36-.74.63-1.15.95-.07.06-.14.12-.19.2-.64.42-1.05.91-1.73,1.31-2.84-.66-4.79-.32-5.95,1-.35.39-.49.8-.47,1.23.01.25.25.51-.01.84-1.2-.4-2.51-.63-3.96-.64-2.26-.01-3.42.7-2.74,1.67.11.15.26.3.43.44.67.54.45,1.14.41,1.71-.03.44-1.09.56-1.72.8-1.41.54-2.05,1.25-2.09,2.04-.03.62.25,1.22,1.58,1.6,1.3.38,1.25.38.56.95-3.7,3.08-7.75,6.09-10.61,9.36-.47.53-1.07,1.04-1.62,1.58-1.77-.65-2.4-.64-3.84.04-1.29.61-2.24,1.33-3.18,2.06-3.89,3-7.56,6.06-10.68,9.24-.21.22-.21.56-1.02.63-.26-.73.24-1.39.21-2.07-.07-1.75.48-3.47,1.16-5.18,2.15-5.41,4.52-10.8,6.5-16.22,2.16-5.93,4.45-11.85,6.69-17.78.26-.7.49-1.4.93-2.08.62-.96,2.16-1.35,4.26-1.16.77.07,1.52.19,2.29.26,1.57.15,3.24.24,4.58-.21,3.87-1.28,7.44-2.71,10.6-4.34,1.05-.54,1.28-1.24.28-1.88-1.02-.66-2.45-.97-4.27-.83-.47.03-.88.25-1.41.09-.06-.21.28-.35.45-.51.38-.36.51-.74.26-1.13-.25-.38-.87-.57-1.74-.61-.42-.02-.52-.19-.72-.32-1.48-.99-3.18-1.16-5.42-.52-.7.2-1.33.46-1.96.67-1.34-.42-1.4-.89-.99-1.53,1.25-1.95,2.6-3.88,4.17-5.78,2.27-2.75,4.15-5.54,5.4-8.42.01-.03.03-.06.05-.09.64-.04,1.52-.24,2.06-.22.2,0,.4.02.59.03.57.09,1.12.2,1.7.27,2.82.35,5.66.43,8.43-.06,2.2-.39,4.41-.75,6.69-1.03,1.86-.23,3.33-.73,4.16-1.55,1.19-1.17.14-2.23-2.56-2.6-.48-.07-.98-.11-1.7-.19.55-.15.87-.22,1.16-.31.35-.11.73-.21,1.04-.34,1.09-.48.88-.91-.54-1.17-.51-.09-1.18-.04-1.57-.24.11-.12.21-.24.3-.36.34-.18.56-.39.84-.58.79-.56,1.07-.88.73-1.21.01-.08,0-.16-.06-.23-.13-.15-.43-.25-.72-.35-.34-.11-.99-.36-1.63-.48-1.31-.36-2.52-.27-3.68.29-.43.21-.76.46-1.11.7-.24.17-.45.34-.97.3-2.05-.15-4.05.13-6.24.17.94-.97,1.82-1.93,2.49-2.9.83-.59,1.44-1.25,1.77-1.94.02-.03.03-.07.03-.1.14,0,.29.03.47.07,1.67.38,3.48.58,5.31.74,5.84.52,11.37-.5,14.72-2.71.16-.1.37-.19.61-.31.67.23,1.26.46,1.9.65,2.05.63,4.72.46,6.41-.38,1.52-.76,1.47-1.86-.15-2.73-.65-.35-1.44-.62-2.29-.87-.43-.12-1.02-.17-1.23-.45.23-.02.37-.04.5-.04,4.4-.11,6.03-1.09,4.98-3-.26-.47-.5-.93-.47-1.42.07-1.2-.49-1.45-3.11-1.6-.93-.05-1.96.09-2.93-.23,2.35-1.07,2.13-2.31,1.36-3.55-.62-1-2.02-1.29-4.28-1.07-.71.07-1.38.32-2.3.21.13-.27.23-.49.32-.7.38-.88-.3-1.58-1.82-2.13-1.62-.58-1.64-.68-.31-1.36.98-.5,2.16-.68,3.63-.63,3.98.12,7.61-.47,11.11-1.23.98-.21,1.83-.51,2.47-.91,1.66-1.03.51-2.28-2.27-2.49-.53-.04-1.06-.05-1.92-.09,1.24-.58,2.32-1.05,3.1-1.62.59-.43,1.37-.65,2.43-.85,3.84-.74,6.74-1.94,8.04-3.78.76-1.07-.32-1.76-2.76-1.92-.32-.02-.7.07-1.01-.12.72-.34,1.47-.67,2.16-1.03,1.24-.64,2.19-1.36,2.54-2.2.51-1.22-1.15-2.09-3.91-2.07-1.95,0-3.59.4-5.09.91-.9.3-1.73.65-2.92,1.09.67-.97,1.28-1.75,1.56-2.57.27-.82.16-1.61-.56-2.37-1.56-1.64-5.65-1.98-8.42-.71-.98.45-1.58,1-1.96,1.59-.43.67-.77,1.35-1.16,2.03-.81-.07-1.04-.38-1.47-.57-3.06-1.33-6.84-.95-8.32.85-.77.94-.86,1.91-.11,2.84.42.51.09.71-.83.98-4.19,1.23-5.74,3.37-4.07,5.46-.24.15-.63.13-.96.18-3.99.63-4.98,2.62-1.94,3.93,1.36.59,3.12.91,4.68,1.35,2.87.82,4.3,2.89,2.9,4.18-.09.08-.24.19-.4.21-1.55.12-2.43.7-3.68,1.12-.07-.31-.08-.54-.18-.75-.49-1.03-3.01-1.91-5.53-1.95-2.33-.03-4.14.68-4.77,1.85-.32.6-.4,1.2-.12,1.82.21.46.34.93.53,1.49-1.64-.47-3.15-.8-4.99-.63-1.89.17-3.18.67-4.08,1.41-2.13-.68-4.07-.48-5.93.06-4.45,1.3-4.25,3.97.36,5.16.55.14,1.39.13,1.68.5-2.49.26-3.64.48-4.59.85-1.44.57-2.09,1.53-1.53,2.28.54.72,1.62,1.04,3.91,1.01.94-.01,1.28.13,1.45.5.32.67.94,1.29,1.84,1.84,1.27.77,2.59,1.51,4.5,1.93t0,0c.42.26,1.29.46,2.02.48.1,0,.2,0,.3,0,1.26.48,1.56,1.06.92,1.85-1.07,1.3-2.19,2.58-3.33,3.87-.13.14-.07.42-.8.36-.7-.72-1.31-1.48-2.44-2.11-.39-.22-.39-.47-.44-.73-.06-.29-.14-.58-.34-.85-.76-1.03-2.6-1.26-4.49-.56-.31.12-.49.31-.79.51-.4-.22-.57-.32-.75-.42-1.54-.85-3.54-.86-5.01,0-.68.39-1,.85-1.02,1.35,0,.29.04.58.05.87.01.21-.12.32-.67.39-2.52.32-3.26.73-3.34,1.9-.2,3.17,3.08,5.54,8.53,7.39.68.23,1.47.38,2.4.32,1.65-.1,2.21.14,1.93.89-.5,1.36-.84,2.74-1.97,4.04-1.01,1.17-1.91,2.36-2.83,3.54-1.96,2.55-4.04,5.09-4.99,7.77-.15.44-.76.62-1.79.83.46-1.36-2.27-1.84-3.2-2.79-.08-.08-.52-.16-.74-.14-.85.09-1.17-.13-1.37-.43-.55-.82-2.69-.85-3.83-.06-.82.57-1.07,1.23-.58,1.85.47.6.14,1.04-.71,1.53-.66-.71-1.15-1.38-1.9-2-1.23-1.01-3.55-1.01-4.93-.03-.66.47-.95,1.01-1.06,1.55-.42,2.11.49,4.1,2.6,5.98,1,.88,2.46,1.57,4.44,2.03,1.45.34,2.86.73,4.28,1.1,2.37.62,3.04,1.28,2.52,2.48-.49,1.14-1.03,2.27-1.46,3.41-1.38,3.68-2.57,7.37-4.52,11-4.51,8.4-7.06,16.93-8.08,25.55-.04.31.14.64-.48.96-.09-.16-.17-.27-.22-.38-1.08-2.57-1.28-5.18-1.64-7.77-.41-2.99-.82-5.97-2.24-8.9-.52-1.07-.92-2.15-1.99-3.15-.99-.92-2.46-.95-3.7-.11-.76.51-1.2,1.1-1.6,1.68-2.23,3.3-4.07,6.64-5.01,10.06-.64,2.34-.59,4.69.71,7,.98,1.73,2.63,3.33,4.6,4.87.32.25.63.5.93.75h1.53c-.23-.2-.47-.4-.71-.6-1.96-1.57-3.67-3.2-4.67-4.96-1.25-2.22-1.28-4.47-.67-6.71.93-3.39,2.81-6.69,4.98-9.96.38-.57.72-1.15,1.65-1.7.68.34.81.69,1.01,1.02,1.59,2.55,2.38,5.16,2.91,7.79.58,2.91.83,5.84,1.74,8.74.22.7.5,1.4.82,2.09.65,1.42.97,2.85,1.03,4.3h1.07c.21-3.22,1.1-6.41,1.96-9.6.79-2.97,1.79-5.92,2.72-8.88,1.24-3.95,3.1-7.85,4.98-11.74,1.8-3.74,2.99-7.53,4.18-11.32.33-1.05.69-2.1,1.15-3.14.61-1.38-.58-2.38-3.04-3.13-1.3-.4-2.61-.8-3.99-1.14-2.11-.52-3.5-1.31-4.4-2.29-1.52-1.66-2.23-3.39-2.09-5.18.04-.55.26-1.1.99-1.55.81-.51,1.95-.56,2.61-.02,1.33,1.08,3.01,2.11,3.12,3.43.13,1.69,1.8,3.14,3.6,4.56.08-.67-.61-1.24-1.07-1.83-.96-1.23-1.66-2.46-1.22-3.78.2-.59.69-1.12,1.6-1.55.99-.47,2.13-.75,3.64-.55,1.59.21,2.31.73,2.48,1.42.18.74.08,1.48-.14,2.21-.37,1.23-.4,2.47,0,3.7.39-1.24.63-2.48,1.07-3.71.2-.55.48-1.07,1.23-1.52.98-.58,2.58-.85,3.98-.65,1.45.21,1.87.76,2.03,1.35.27.95-.31,1.85-1.08,2.73-.53.59-1.17,1.16-1.62,1.78,1.31-.59,2.17-1.31,2.85-2.08.67-.75,1.1-1.52,1.11-2.34.02-.98,3.26-1.94,5.28-1.56.79.15,1.26.43,1.31.82.05.31.01.61.01.95.73-.22.46-.64,1.07-.84,1.14.12,1.25.51,1.06.9-.43.91-1.27,1.71-3.29,2.13-3.03.63-5.67,1.5-7.76,2.68-.84.47-1.83.78-3.2.88-.89.06-1.85.17-2.46.67,1.21-.15,2.27-.3,3.38-.35,1.2-.05,2.11-.37,2.87-.78,2.34-1.22,5.21-2.09,8.51-2.7.79-.15,1.52-.36,2.27-.54.57-.14,1.14-.27,1.8-.29.93-.02,1.68.14,2.23.47.58.36.44.72-.02,1.08-.47.37-1.12.67-1.79.96-2.11.92-4.25,1.82-6.33,2.75-1.76.79-3.73,1.13-6.23.82-5.14-.63-7.11.54-7.81,2.37-1.79,4.65-3.95,9.28-5.9,13.92-2.6,6.19-4.46,12.44-7.09,18.63-.9,2.12-1.13,4.28-1.54,6.42-.26,1.38-.43,2.76-.06,4.14.11.41-.2.76-.49,1.12-.05.06-.09.11-.13.16h1.27c.58-.64,1.17-1.28,1.82-1.91,2.07-2.02,4.29-4,6.74-5.93,2.43-1.91,4.59-3.9,7.92-5.69.41.48.21.83.03,1.15-2.15,3.81-4.76,7.54-8.88,11.04-.53.44-1.05.89-1.58,1.34h2.06c4.25-3.71,7.55-7.6,9.9-11.66.51-.88,1.21-1.7,2.09-2.5,3.59-3.29,7.12-6.59,10.68-9.88.31-.28.63-.56,1.06-.95.73.58.86,1.11,1.25,1.61.21.28-.06.49-.32.72-3.88,3.51-7.8,7.01-11.6,10.54-4.29,3.98-8.22,8.03-11.82,12.13h1.8c7.04-7.63,14.86-15.13,22.39-22.71.78.39,1.35.84,2.49,1.14-1.45.47-1.55,1.28-2.69,1.81-.65.3-.22.68.28.97.72.43,1.74.66,2.84.83,2.38.37,4.68.8,6.57,1.58.21.09.47.15.72.21,1.86.43,1.85.43,1.56,1.31-.27.83-1.01,1.58-1.8,2.42-.74-.64-1.36-1.21-1.71-1.84-.2-.37-.48-.74-1-1.06-1.57-.95-4.39-1.11-6.42-.35-.35.13-.68.27-1.01.4-.13-.07-.32-.11-.51-.14-.09-.02-.19-.03-.28-.05-.34-.2-.83-.35-1.37-.47-.47-.11-.95-.14-1.39.02-.43.15-.59.37-.4.6.28.35.52.71,1.09.96.17.1.36.2.57.28.17.07.37.13.6.14.29.37.05.76.08,1.15.03.38.1.76.16,1.21-.64-.05-.79-.32-1.14-.47-1.17-.5-2.24-.64-3.27-.41-1.27.28-1.54.8-1.53,1.38.01.53.32,1.04.99,1.46,2.59,1.64,5.43,3.16,9.92,3.79.35.05.72.07.72.28,0,.31.13.63-.09.91-.03-.01-.06-.02-.09-.03-.26-.07-.59-.06-.87-.02-.86.13-1.33.54-1.67.92-.03.03-.08.08-.14.14-.27-.17-.14-.37-.15-.55-.02-.52-.19-1.02-.7-1.49-1.06-.98-3.23-1.22-5.16-.57-.45.15-.9.34-1.15.56-2.04,1.81-3.73,3.66-2.98,5.73h1.32c-.32-1.16.05-2.39,1.15-3.62.43-.48.84-.95,1.27-1.43.3-.33.69-.63,1.39-.83,1.11-.31,2.24-.23,2.98.26.37.24.65.51.69.8.16,1.18.32,2.37-.36,3.54-.25.43-.46.85-.61,1.28h1.16c.23-.7.56-1.39.97-2.08.44-.73,1.03-1.41,1.97-2.02.13-.04.27-.08.42-.11.19-.03.4-.05.55-.1.37.04.64.16.87.35.33.28.73.61,1.46.67,1.47.12,1.35.56,1.16,1.01-.3.73-.83,1.43-1.37,2.13-.04.05-.08.1-.11.14h1.16c.44-.58.8-1.18,1.03-1.79.12-.32.3-.65.13-.96-.3-.56.37-.84,1.31-1.07,1.74-.43,3.58-.66,5.57-.48,1.8.17,2.42.62,1.87,1.39-.26.37-.6.73-1.03,1.06-.81.63-1.65,1.24-2.54,1.85h3.37c.44-.16.86-.32,1.3-.48,1.13-.4,2.37-.73,3.78-.88.68-.07,1.5-.14,1.94.21.41.33-.08.62-.48.88-.17.11-.37.2-.61.27h4.33c-.11-.02-.23-.05-.36-.06-.78-.12-1.61-.16-2.43-.24.78-1.13.02-1.57-2.44-1.48-1.56.06-2.84.4-4.03.83-.5.18-.89.46-1.92.54.62-.54,1.11-.96,1.58-1.39,1.01-.92,1.8-1.84-.2-2.82.86,0,1.41,0,1.96,0,3.23-.03,6.44-.13,9.49-.67,1.68-.3,3.24-.7,4.34-1.37,1.71-1.04.99-2.27-1.59-2.81-.42-.09-1.03,0-1.3-.3.37-.18.78-.36,1.11-.56,1.52-.93.72-2.02-1.74-2.38-1.06-.16-2.12-.13-3.15.05-.84.14-1.55.26-1.97-.3-.31-.41-1.28-.57-2.23-.67-1.08-.12-2.3.32-3.04.08-.75-.24-.53-.91-1.32-1.27-.1-.05-.19-.1-.3-.14-.14-.06-.24-.11-.32-.17.41-.18.51-.47.56-.73.05,0,.1,0,.14.01,2.3.61,4.53.45,6.66-.15.61-.17.97-.13,1.5.04,1.35.43,2.89.71,4.42.96,2.89.48,5.48-.15,6.31-1.48.09-.15.09-.32.51-.4.58.03.98.23,1.47.35,1.29.3,2.64.49,4.09.51,2.4.03,3.65-.45,3.73-1.51.04-.48.42-.85,1.04-1.22,1.1-.66,1-1.2-.2-1.82-.67-.34-1.51-.58-2.41-.78-.56-.13-1.26-.15-1.71-.42.37-.25.92-.48.97-.8.1-.63.68-1.17,1.32-1.71.17-.14.27-.3.35-.45.38-.69-.24-1.14-1.79-1.25-.68-.05-1.38,0-2.01,0-.37-.32,0-.56.04-.81.3-1.51-.46-2.81-3.61-3.62-.21-.06-.37-.12-.44-.2.33-.14.73-.32.93-.46.79-.29,1.42-.65,1.93-1.06,1.01-.79.73-1.38-.9-1.91-.6-.2-1.02-.42-1.36-.72-.75-.65-1.53-1.04-2.57-1.24.36-.07.66-.14.76-.17.81-.19,1.65-.38,2.43-.6,1.31-.21,2.4-.57,3.36-1.01,1.17-.54,2.06-1.15,2.38-1.91.4-.91-.74-1.5-2.79-1.51-.69,0-1.33.22-2.05.11.64-1.85-.16-2.42-3.77-2.7.28-.43.54-.86.84-1.29.3-.44.38-.89.29-1.34-.2-1.06-2.06-1.66-4.37-1.44-1.16.11-2.15.36-2.86.79-.43.26-.81.53-1.15.81-1.31,1.08-2.29,2.21-2.88,3.41-.37.75-.85,1.49-2.78,1.9.13-.42.22-.76.35-1.1.13-.37-.11-.69-.43-1.02-.15-.16.22-.29.39-.43,5.8-4.48,10.91-9.12,15.73-13.82.88-.86,2.05-1.44,4.16-1.86,5.47-1.11,9.99-2.85,13.77-4.96.68-.38,1.21-.8,1.41-1.29.29-.7-.58-1.19-2.16-1.27-.96-.05-1.84.09-2.71.23-.48.08-.91.25-1.53.23.1-.13.12-.2.2-.24,4.55-2.68,7.78-5.69,11.04-8.7.26-.24.4-.5.59-.76.32-.15.66-.21,1.02-.22.02.01.05.03.08.04.27.12.75.14,1.02.03.02,0,.04,0,.06,0,1.58.2,3.13.09,4.62-.18,2.55-.48,4.75-1.19,6.54-2.14,1.48-.79,1.52-1.16.29-2.09,1.51-.23,2.88-.57,4.18-.96,1.37-.41,2.71-.84,3.93-1.34,1.01-.42,1.95-.86,2.44-1.45.81-.98-.01-1.63-2.3-1.85-.32-.03-.73.04-.96-.17.4-.28,1.12-.36,1.72-.5,1.57-.39,3.15-.77,4.6-1.24.87-.28,1.71-.59,2.32-.99.68-.45,1.1-.93.37-1.44-.75-.52-1.92-.64-3.2-.55-1.22.09-2.31.32-3.36.61-.65.18-1.15.47-2.15.59.22-.34-.93-.72.67-.92,4.8-.58,8.49-1.94,11.79-3.54.87-.43,1.59-.91,1.9-1.49.48-.9-.66-1.61-2.7-1.68ZM191.75,85.35c-1.18.23-2.42.47-3.39,1.1-.54-.83-.22-1.4.58-1.91.87-.56,1.65-.54,2.38.04.28.22.49.46.43.77ZM193.3,85.39c-.27,0-.59.01-.66-.15-.04-.11.12-.17.36-.18.31,0,.53.06.66.2.07.14-.2.13-.37.13ZM233.96,67.62c1.95.14,2.74.83,1.95,1.64-.68.7-1.99,1.07-3.55,1.29-1.49.22-3.04.36-4.44.7-3.38.83-6.91.95-10.6.5-.2-.02-.4-.05-.6-.08-.35-.06-.7-.1-1.07-.1-.47,0-1.43-.04-2.08.04-.07-.04-.16-.08-.28-.11-.99-.33-.77-.67.31-.97.57-.16,1.2-.21,1.83-.27,1.69-.16,3.31-.4,4.9-.69,2.25-.42,4.43-.9,6.56-1.43,2.22-.55,4.6-.7,7.07-.51ZM234.89,65.58c.29.42-.94.56-1.56.8-1.67.66-3.92.47-5.74.9-.09-.05-.17-.1-.26-.15.26-.23.54-.45.78-.68,1.19-1.16,1.7-1.31,4.48-1.2.82.03,2.04-.06,2.31.32ZM228.18,62.78c.64-.62,2.05-1.05,3.58-1.11.53.08,1.07.16,1.48.34.54.24.7.59.96.91-.05.34-.41.68-.84,1.03-.12.09-.24.19-.33.29-.11.07-.21.15-.32.23-.09.07-.18.14-.22.21-.08.02-.16.04-.24.05-.9.1-1.81.18-2.92.28-.07-.68,0-1.37-1.13-1.88-.22-.1-.15-.22-.02-.35ZM244.59,56.21c-2.33,1.37-5.66,1.91-9.26,2.15-3.24.22-6.37-.07-9.72-.55,1.47-.7,2.57-1.42,3.27-2.25.21-.26.63-.31,1.18-.31,3.48-.04,6.28-.74,8.72-1.81.76-.33,1.54-.68,3-.72-.66,1.18.48,1.91,2.45,2.49,1.38.4,1.33.42.35,1ZM238.72,53.11c-2.77,1.06-5.71,1.6-9.22,1.84,1.01-1.73,2.4-3.23,3.96-4.7.3-.28.71-.48,1.53-.51.38.76,1.34,1.45,1.26,2.3-.06.63.35.74,2.48,1.08ZM250.85,46.55c1.05.05,2.23-.07,3.1.26.9.34.21.86.47,1.28.24.4.49.8.72,1.21.78,1.38-.37,2.15-3.5,2.39-1.25.09-2.49.1-4.02-.05.99.47,2.03.62,2.92.88,1.21.35,2.36.73,3.13,1.29.95.7.87,1.33-.2,1.86-1.16.57-3.1.79-4.48.4-1.87-.52-3.71-1.09-5.42-1.71-1.53-.56-1.53-1.41-.14-2.34-.99.16-1.85.29-2.7.43-.61.1-1.24.15-1.89.14-1.24-.02-1.61-.14-1.57-.67.04-.56-.12-1.09-.6-1.6-.47-.5-.17-.95.44-1.37,1.06-.74,2.28-.81,3.67-.21,1.54.67,3.14,1.31,4.45,2.1-.03-.59-.82-1-1.58-1.42-1.73-.95-1.17-2.09,1.3-2.6.57-.12,1.22-.18,1.85-.23,1.34-.1,2.71-.11,4.06-.04ZM246.61,41.76c1.96-.37,2.98-.14,3.52.78.54.93.96,1.88-.42,2.78-.61.4-1.27.64-2.4.69-2.97.13-5.19.71-5.75,2.26-2.56-.71-4.27-.53-5.75.51-.3.21-.31.51-.94.61-.12.02-.28,0-.54,0,.37-.76.52-1.52.2-2.28-.1-.23.19-.43.41-.63,2.46-2.29,6.59-3.76,11.67-4.73ZM259.28,28.7c-1.39,1.65-3.3,3.12-7.22,3.83-2.04.37-4.02.81-6.04,1.22-.39.08-.79.14-1.55.03,1.95-1.43,3.55-2.9,4.95-4.4.72-.77,1.35-1.55,2.12-2.31.63-.62,1.51-1.17,2.88-1.51,1.91-.47,3.47-.26,4.44.61.9.81,1.11,1.68.4,2.52ZM265.83,24.19c1.88-.07,2.61.33,2.24,1.18-.18.41-.54.8-1.03,1.16-1.4,1.03-3.26,1.86-5.52,2.5-.24.07-.5.12-.76.17-.12.02-.27,0-.4-.02-.26-.12-.08-.24,0-.35.67-.92.66-1.83-.14-2.73-.23-.26-.36-.48.16-.7,1.55-.65,3.31-1.13,5.46-1.21ZM260.96,19.79c1.22-.46,2.58-.82,4.14-.97,2.87-.28,4.45.49,3.64,1.76-.75,1.19-2.54,2.06-4.44,2.9-1.47.65-3.41,1.06-4.75,1.93-1.36-.66-3-.87-4.85-.62-1.71.23-2.88.79-3.85,1.47-.5-.26-.79-.48-.72-.74.36-.15.69-.34.84-.41.02,0,.03-.01.04-.02,1.75-.58,2.88-1.4,3.86-2.24,1.48-1.26,3.73-2.17,6.08-3.05ZM248.19,18.58c.68-.88,1.28-1.77,1.98-2.64.37-.46,1-.85,1.88-1.15,2.19-.74,4.75-.45,5.81.69.86.93.64,1.9.16,2.84-1.11,2.2-3.55,4.13-6.26,5.99-.45.16-.84.37-1.26.55-.23.1-.81.21-1.22.35-.6-.12-1.08-.32-1.49-.57.05-.08.08-.16.09-.24.28-.17.37-.39.47-.59.7-1.52.91-3.05-.03-4.58-.13-.21-.33-.41-.14-.65ZM238.94,18.63c1.29-1.38,3.9-1.62,6.28-.59,1.8.78,2.46,1.79,2.68,2.87.18.9.12,1.8-.09,2.7-.2.29-.4.61-.73.85-.08.06-.22.1-.36.15-.67,0-1.11-.23-1.35-.61-.1-.15-.2-.31-.33-.46-.9-1.07-2.5-1.7-5.14-1.69-.66,0-1.28.05-1.41-.38-.29-.97-.41-1.92.45-2.85ZM237.76,34.03c-.6-.58-1.53-1-2.71-1.33-1.33-.38-2.75-.69-3.93-1.17-1.87-.76-2.07-1.77-.57-2.57,1.13-.6,2.55-.7,3.99-.25,1.31.41,2.22.99,3.05,1.6.51.37.99.75,1.49,1.13.12-.03.24-.07.36-.1-1.01-1.14-2.05-2.3-4.42-3.05-1.63-.52-2.09-1.23-1.97-2,.21-1.34,1.48-2.48,3.9-3.3,2.78-.95,5.71-.62,6.85.86.6.78,1.48,1.23,3.28,1.45,2.18.27,3.23,1.24,2.47,2.21-1.76,2.28-3.79,4.51-6.5,6.6-.32.25-.77.46-1.14.7-.66.42-.72.53-.64,1.31,1.06-1.54,3.91-1.85,6.85-2.13.64-.06,2.06.11,1.6-.61-.01-.02.08-.05.14-.07,2.36-.53,4.68-1.17,7.47-.98,2,.14,2.7,1.02,1.47,1.74-.54.31-1.26.53-2.04.69-3.39.7-6.8,1.34-10.66,1.25-2.46-.06-4.1.56-4.91,1.54-.43.51-.96.44-1.76.31-.76-.12-1.56-.23-.98-.72.45-.38.01-.91,1.02-1.19.22-.06.02-.17-.09-.23-.78-.51-1.07-1.12-1.64-1.67ZM234.72,39.17c1.57-1.03,2.25-1.11,4.86-.76.41.06.83.1,1.23.16,2.9.44,3.94,1.43,2.97,2.73-.22.29-.53.51-1.11.68-3.86,1.12-7.03,2.51-8.57,4.59-1.04-.43-1.88-.84-3.12-.96-.61-.06-.76-.24-.75-.5.03-.58.19-1.15.47-1.72.77-1.52,2.05-2.94,4.02-4.22ZM224.01,38.17c.39-.95,1.71-1.55,3.41-1.63,2.05-.09,4.31.48,5.05,1.3.58.65.64,1.3-.09,1.95-1.77,1.56-2.88,3.21-2.86,4.98,0,.48-.33.78-1.51.84-.7.03-1.32.19-1.76.46-.03-.03-.06-.06-.11-.07-1.67-.43-2.11-1.02-1.4-1.84.45-.52.34-1.08.01-1.61-.63-1.03-.68-2.09-.89-3.14-.08-.41-.02-.84.15-1.25ZM215.48,44.52c.42.41.79.78.46,1.27-.83-.42-.76-.85-.46-1.27ZM218.71,52.88c-.35.95-.37,1.91-.33,2.87,0,.05,0,.09,0,.13-.35.1-.6.27-1.05.28-.05,0-.09,0-.13,0-1.83-.68-3.6-1.39-4.88-2.31-.75-.54-1.43-1.1-2-1.69-.32-.33-.4-.61.5-.79,1.21-.25,1.99-.79,3.22-1.03.07.23.43.54.61.7.42.62,1.46,1.04,3.09,1.26.7.1,1.13.19.98.58ZM215.85,51.27c-.22-.13-.41-.26-.6-.4-.09-.19-.17-.39-.26-.58-.05-.1-.16-.2-.31-.25.34-.26,1.02-.42,1.44-.76-1.13.14-1.78.43-2.49.67-1.26.43-2.48.88-3.95,1.15-1.82.34-3.17.26-3.85-.25-.76-.56-.43-1.43.8-1.94,1.14-.48,2.6-.63,4.07-.8,1.36-.16,2.85-.06,4.11-.47-2.13.02-4.05-.21-5.78-.77-3.94-1.27-3.58-3.55.75-4.54,2.57-.59,4.29-.18,4.3,1.12.01,1.16.45,2.23,1.96,3.25.91-.63,1.14-1.29.78-1.98-.24-.47-.64-.92-.96-1.38-.67-.98-.24-1.59,1.4-1.99,1.76-.43,4-.27,5.3.38,1.72.86,1.88,2.33.32,3.31-.58.36-1.26.69-1.91,1.04.57.18.78-.07,1.12-.14,1.17-.23,2.27-.2,2.77.1.19.12.3.24.36.36-.02.11-.08.23-.18.33-.21.22-.54.41-.88.6-.69.38-1.41.77-2.37,1.01-.52.13-1.96.15-2.19.33.64.08,1.37.06,2.06-.02.03.02.06.04.08.05,0,0,0,0-.01,0,.18.5.44,1,.52,1.51.13.8-.55,1.29-1.93,1.54-1.6.29-3.43.11-4.43-.48ZM219.54,55.83c-.09-.96-.17-1.93-.27-2.89-.03-.26-.09-.51.68-.61,3.09-.39,3.7-1.61,2.57-2.98-.18-.22-.22-.49-.74-.63.05-.04.11-.08.17-.11.44-.07.87-.16,1.22-.27.43-.13.81-.29,1.17-.47,1.56-.35,1.7-1.07,1.92-1.77.53-.07,1.06-.14,1.6-.2,3.29-.33,5.89.66,5.69,2.17-.08.62-.49,1.21-1.13,1.75-1.96,1.65-3.45,3.39-4.67,5.17-.44.65-1.07,1.26-2.03,1.8-.92.51-2.04.79-3.69.56.26-.99,1.53-1.85,1.82-2.99-1.49.91-1.98,1.83-2.46,2.81-1.34-.31-1.79-.77-1.84-1.34ZM216.46,62.57c1.75-1.29,2.78-2.73,3.52-4.21.24-.48.53-.7,1.68-.43.46.11,1.04.09,1.56.15-.01.06.01.14,0,.24-.02.26-.06.52-.13.78-1.02.95-1.76,1.96-2.52,2.96-.53.7-1.04,1.36-2.45,1.83-.77.26-1.29.67-2.14,1.12-.23-.91-.6-1.66.48-2.45ZM217.96,64.83c2-1.3,5.03-1.49,8.16-1.52,1.21-.01,1.94.42,2.1,1.04.38,1.4-1.6,3.16-4.38,3.82-2.32.55-4.66,1.1-7.35,1.35,1.06-.57,2.2-1.1,3.17-1.69.11-.07.17-.16.09-.32-.96.39-1.9.79-2.89,1.17-1.02.39-1.88.86-3.07,1.2-.07-.09-.12-.12-.11-.15.18-.71,3.43-4.34,4.28-4.89ZM209.28,58.38c1.45-.06,2.28.48,2.45,1.66-1.77-.3-3.29,0-4.76.44-.54-1.27.36-2.03,2.32-2.1ZM201.38,58.91c.58-.41,1.42-.65,2.52-.59,1.01.05,1.39.42,1.65.8.26.4.47.81.67,1.22.11.22.12.45-.25.64-.91.48-1.49,1.06-2.25,1.8-.8-.71-1.63-1.23-2.88-1.56-.15-.04-.3-.16-.29-.24.07-.7-.07-1.43.84-2.06ZM206.88,70.21c-.68.19-1.26-.02-1.76-.18-2.38-.8-4.25-1.81-5.68-2.98-1.43-1.17-2.2-2.44-2.39-3.77-.13-.94.59-1.68,1.86-1.77,1.71-.11,2.78.39,3.66.96.7.46,1.22.95.81,1.47.05,1.25.84,2.34,2.09,3.37.79.65,1.58,1.3,1.9,2.03.15.33.26.65-.5.86ZM208.42,69.93c.05-1.03-.86-1.94-1.86-2.84-1.1-.99-1.85-2.02-1.63-3.15.22-1.13,1.12-2.13,3.02-2.9,1.86-.75,3.05-.67,4.35.26,1.66,1.2,2.58,2.5,2.57,4.1-.16.85-.25,1.88-1.27,2.83-.35.32-.47.67-.57,1.03-.13.47-.7.84-1.37,1.18-.57.28-1.32.39-2.15.25-.76-.13-1.09-.4-1.08-.76ZM203.08,87.07c-1.17-.12-2.15-.12-3.2-.07-.17-.54.28-.96.59-1.37,1.67-2.26,3.39-4.5,5.1-6.75,1.21-1.58,2.24-3.19,3.21-4.8.37-.62.65-1.25.61-1.9-.06-1.05-.02-1.05,2.23-1.37.17.2.21.49.53.58.42.12.67.25.8.38-.05.04-.08.09-.05.15.03.08.09.13.19.16,0,.23-.19.47-.36.73-1.86,2.84-4.24,5.59-6.34,8.4-1.41,1.88-2.66,3.79-3.32,5.86ZM259.72,75.79c.5-.35,1.13-.67,1.96-.88.79-.2,1.27-.08,1.22.32-.07.49-.48.94-.93,1.38-.99.96-2.08,1.91-3.05,2.87-1.42,1.41-2.58,2.86-2.65,4.47-.79-.45-.97-.98-.99-1.52-.08-2.42,1.56-4.62,4.44-6.64ZM233.62,102.3c1.18-.37,2.48-.64,3.82-.86,1.19-.2,1.43-.11,1.25.44-.24.73-.52,1.46-.8,2.19-.18.46-.06.92.37,1.32.66.62,1.07,1.25,1.21,1.93.09.41.49.8.9,1.18,1.86,1.74,1.42,3.11-1.42,4.29-.1,0-.22.02-.31.05-.34.12-.69.24-1.03.36-.34.12-.76.27-1.22.26-.11,0-.23-.03-.35-.06-.02-.05-.03-.09,0-.13.51-.69.51-1.3-.67-1.77.08-.19.16-.37.24-.55.27-.14.41-.34.54-.52.57-.78,2.15-1.4,1.92-2.31-.12-.49-.92-.72-1.91-.77-1.02-.05-1.63-.25-1.96-.71-.37-.53-1.29-.92-1.94-1.38-1.74-1.24-1.35-2.12,1.34-2.96ZM222.24,118.17c-.16-.21-.38-.42-.48-.63-.24-.52.16-.78,1.38-.86.83-.06,1.66-.03,2.48.04.1.4.92.52,1.5.71,1.35.44,2.18,1,2.32,1.75.15.76,1.03,1.27,2.66,1.44,1.26.13,1.38.39,1.01.89-.36.49-.64.99-1.26,1.42-.89.63-1.88.76-3.22.33-1.58-.49-2.94-1.11-4.3-1.73-.26-.12-.45-.26-.42-.43.19-1.07-.92-1.99-1.67-2.95ZM231.53,123.75c2.11-.94,2.11-2.17,2.28-3.38.03-.24-.28-.43-.58-.6-.74-.43-.92-.91-.75-1.44.14-.46.3-.95-.84-1.24-.44-.37-.36-.69.41-.95.42.11.85.22,1.02.45.34.47,1.03.82,1.86,1.11-1.77,1.22-1.38,2.08,1.25,2.85.36.1.75.18,1.11.28,2.18.59,1.86.43,1.05,1.4-.76.91-2.34,1.58-4.01,2.2-1.2.44-2.05.02-3.02-.15,0-.17-.17-.35.2-.52ZM233.19,116.13c-.03-.06-.11-.14-.05-.17.96-.71,1.19-1.59,2.34-2.26.19.05.42.07.65.03.29-.04.55-.13.83-.18.04,0,.08-.02.13-.02-.01,0-.02.01-.03.02.71-.07,1.38-.23,2.13-.21,0,.02,0,.03,0,.05,0-.01.02-.03.03-.04,0,0-.04-.03-.04-.03.67-.37,1.39-.72,2.02-1.1.86-.53,1.32-1.13,1.27-1.8-.02-.22-.31-.61.55-.61,1.02,0,.6.43.59.67-.03.41-.17.83-.36,1.24-.58,1.25-1.16,2.51-2.47,3.67-.72.64-1.6,1.22-2.97,1.61-2,.57-4.06.18-4.61-.86ZM243.26,109.3c-.41.21-.83.21-1.23-.02-2.16-1.23-2.23-3.15-.14-4.51.88-.57,1.93-1.07,3.64-.95,1.25.09,2.04.83,2.06,1.74.02.97-.82,1.81-2.12,2.56-.7.4-1.46.79-2.21,1.17ZM234.2,107.23c-1.43.08-2.15.63-3.38.77-.47-.24-1.22-.44-.62-.85.56-.39,1.22-.75,2.3-.75,1.01,0,1.22.44,1.7.83ZM228.16,107.15c.69-.47,1.48-.93,1.92-1.46.15-.12.28-.25.37-.36,1.16-.11,1.11.48,1.76.6-.14.28-.5.3-.83.35-1.18.18-1.93.52-1.93,1.12,0,.22-.25.35-.73.4-.31.03-.56-.03-.74-.13-.35-.2-.05-.35.18-.51ZM212.74,116.79c-.27-.8-.05-1.54,1.44-2.11.6-.23,1.21-.45,1.8-.69,2.57-1.02,4.54-1.12,7.63-.42.42.1.76.29,1.32.27-1.9-1.28-4.9-1.5-9.16-.64,0-.75-.29-1.45-.79-2.14-.38-.52.3-.86,1.54-.92,1.5-.08,2.85.11,3.96.57,1.1.46,2.18.92,2.98,1.5.54.39,1.23.75,1.97,1.08-.14-.6-.95-1.05-1.57-1.54-1.11-.88-1.95-1.79-1.78-2.83.09-.54.5-1,1.32-1.39.96-.46,2.08-.6,3.02-.17,1.29.59,2.76.67,4.38.66.13.26.36.41.96.16,1.08-.46,2.38-.55,3.79-.42,1.45.13,1.83.37,1.32,1.01-.65.81-1.44,1.6-2.17,2.39-.49.25-1.13.32-1.86.34-1.14.03-2.26.14-3.29.38-1.83.43-2.9,1.08-2.97,2.13.3-.15.51-.21.57-.29.99-1.39,3.84-1.78,6.9-1.67,1.09.04,1.44.23.98.7-1.08,1.1-1.63,2.29-2.98,3.34-.64-.02-1.16.1-1.72.31.55.18.61.54,1.26.67.12.46.41.9.05,1.38-.34.46-.07.94.49,1.43-1.29-.02-1.5-.42-1.59-.75-.36-1.35-2.32-2.02-4.87-2.46.15-.44,1.03-.76,1.04-1.39-.81.86-2.09,1.1-3.83,1-1.04-.06-1.76.26-2.23.64-.84.66-2.02.84-3.62.67-.83-.09-1.7-.11-2.55-.13-1.01-.03-1.6-.26-1.75-.7ZM234.9,111.15s-.08.09-.12.13c-.02-.03-.02-.08-.04-.12.05,0,.11,0,.16-.01ZM218.13,121.49c-.72-.28-1.19-.63-1.53-1.02-.5-.56-.98-1.13-1.44-1.7-.51-.63-.37-.7,1.19-.65.21,0,.43.02.63.04,1.57.15,2.98.07,4.23-.75.63,1.11,1.2,2,1.64,2.9.32.66-.16,1.16-1.17,1.42-1.09.29-2.42.2-3.55-.23ZM225.64,133.65c.06.26.1.5-.32.73-1,.54-1.97,1.1-2.93,1.66-.46.27-.93.26-1.43.03-.61-.28-1.04-.61-1.36-.97-1.21-1.35-1.74-2.77-2.07-4.21-.06-.25,0-.51.12-.76.14-.31.6-.49,1.34-.52,2.09-.08,4.11.42,5.1,1.26,1.02.87,1.35,1.82,1.54,2.78ZM215.97,129.56c.13-.15.24-.31.41-.44.78-.62,1.78-1.09,3.53-1.06,1.64.03,2.68.44,3.45,1.4-1.18-.14-2.25-.28-3.34-.38-2.43-.22-3.77.24-3.78,1.35-.02,1.4.88,2.72,1.84,4.04.19.27.62.5.58.82-2.45-1.19-4.14-4.04-2.69-5.71ZM213.7,129.54c-.41-.31-.89-.61-1.03-.98-.14-.35.2-.49.89-.34.47.1.9.23,1.34.35.11.06.21.13.3.2-.2.31-.25.67-.88.87-.22,0-.44-.05-.63-.11ZM220.4,137.44c-.32.25-.87.17-1.35.13-.72-.06-1.35-.22-1.91-.42-2.57-.93-4.87-1.98-6.7-3.23-.6-.41-.97-.86-1.08-1.32.03-.36.2-.67.89-.85.73-.2,1.45-.08,1.98.14,1.18.49,2.46.92,3.06,1.67.99,1.25,2.42,2.4,4.64,3.31.38.16.79.31.47.57ZM219.4,136.08c.45-.01.52-.03.55-.02.46.18,1.12.26,1.3.55.02.04-.13.14-.2.14-.86-.02-1-.37-1.65-.68ZM223.66,140.08c-.84.25-1.65.06-2.14-.33-.67-.53-.85-1.09-.4-1.66.26-.33.59-.66,1.02-.95,1.35-.9,2.89-1.75,4.58-2.53.3-.14.63-.26.98-.37.85-.26,1.72-.46,2.77-.2.89.23,1.23.52,1.24,1.24-.06.82-1.09,1.59-1.88,2.41-1.22,1.27-3.9,1.71-6.16,2.38ZM248.21,135.48c.56.47.21,1.03-.92,1.56-1.01.47-2.25.78-3.59,1.01-3.45.59-7.07.73-10.72.75-1.23,0-2.51.17-3.89-.07.81-.55,1.52-1.02,2.22-1.5.25-.17.59-.27.99-.35,3.16-.58,6.32-1.17,9.49-1.74,1.06-.19,2.17-.31,3.32-.34,1.29-.03,2.43.11,3.09.66ZM241.68,131.86c.32-.07.65-.13.99-.18,1.8-.27,3.35-.11,4.05.42.72.54.25,1.15-1.37,1.73-.55.2-1.13.39-1.84.48-3.59.48-6.88,1.24-10.16,2.03-.29.07-.57.19-1.02.12.11-.69.65-1.25,1.95-1.7,1.28-.45,2.33-1.04,3.49-1.56,1.17-.53,2.41-1.01,3.91-1.33ZM236.76,130.51c1.07-.02,2.16,0,3.01.35.57.24.96.53.15.8-2.61.86-4.45,2.06-6.81,3.17-.35-.46-1.13-.78-1.38-1.22.31-.19.58-.4.78-.63,1.02-.47,1.68-1.05,2.01-1.68.32-.6,1.07-.78,2.23-.8ZM233.5,129.76c.6.62.37,1.25-.05,1.88-.35.53-1.16.96-1.65,1.46-.25.1-.5.18-.68.23-.11.03-.22.06-.33.09-1.45-.19-2.76,0-4.1.34-.49-.3-.31-.59-.27-.85.13-.97.73-1.89,1.76-2.75.41-.34.9-.66,1.65-.87,1.52-.44,2.95-.26,3.67.49ZM228.42,128.94c.05-.36,0-.7.15-1.02.22-.49,1.06-.63,1.9-.32.77.29,1.63.37,2.56.37-.02.03-.03.07-.06.1-.63.24-1.22.5-2.25.44-.78-.05-1.39.3-2.31.42ZM231.46,127.47c-.87-.16-1.47-.39-1.24-.95.35-.84.46-1.72-.98-2.44.58.77.62,1.57.15,2.36-.55.94-1.82,1.14-3.44.49-1.92-.77-4.09-1.27-6.53-1.59-.74-.1-1.45-.27-2.1-.46-.74-.22-1.12-.51-.3-.87.2-.09.41-.21.44-.32.23-.89,1.3-1.29,3.3-1.29,1.09,0,1.99-.32,2.73-.72,1.91.87,3.55,1.77,5.73,2.39.75-.06,1.44-.01,2.06.19.91.6,1.42,1.27,1.8,1.98.16.31.9.55,1.39.82-.78.49-1.84.61-3.01.4ZM240.03,127.7c-1.92.35-3.82.25-5.83.1.35-.54.92-.69,1.84-.65,1.15.06,2.28,0,3.33-.23.54-.11.92-.09,1.2.17.32.3.1.48-.54.6ZM240.21,125.91c-.37.76-.4.78-2.16.89-2.3.15-4.32-.36-4.75-1.2-.12-.25-.24-.47.54-.62,2.64-.5,3.9-1.54,4.95-2.65.22-.23.31-.49.74-.74.81.11,1.29.46,2,.64.76.21,1.38.57,2.44.48-.48.15-.9.31-1.11.56-.55.67-1.34,1.28-2.08,1.9-.27.22-.44.48-.56.72ZM251.57,127.8c-.89.57-2.66.87-4.18.63-1.74-.28-3.44-.63-4.91-1.14-1.09-.38-1.66-.92-1.05-1.53,1-.99,1.69-2.02,2.54-3.03h0c1.44.45,3.12.32,4.72.39,1.74.08,1.77.06,1.73.82-.04.72.18,1.43,1.15,2.01,1.09.65.92,1.25-.01,1.85ZM254.98,114.03c1.29.57,1.92,1.27,1.98,2.07.11,1.46-.81,2.79-2.37,4.05-.37.29-.72.59-.94.92,1.78-.67,2.83-1.55,3.57-2.51.32-.42.81-.54,1.73-.5,1.93.09,2.35.38,1.65,1.22-.5.6-1.02,1.19-1.12,1.85-.09.61-.75.81-2.19.74-1.21-.06-2.4-.11-3.59.16,2.19.04,4.25.3,6.19.73.9.2,1.79.41,2.46.76.86.44.95.75.14,1.19-.8.44-1.3.89-1.32,1.48-.03.76-.73,1-2.45,1-4.02,0-7.38-1.39-7.75-3.22q-.2-1-2.41-1.19c-.98-.08-1.97-.17-2.95-.24-1.46-.11-2.72-.41-3.77-.87-1.51-.65-3.15-1.21-4.97-1.67-.25-.06-.49-.14-.71-.22-1.74-.67-1.56-1.49.54-1.89,2.17-.41,4.53-.58,6.71-1,.62-.12,1.06.02,1.32.31.49.55.73,1.09.29,1.68-.98,1.34.26,2.38,2.44,3.25.2.08.41.17.99.08-.42-.24-.75-.45-1.11-.65-1.4-.78-2.02-1.62-1.16-2.6.59-.67.35-1.32-.3-1.96-.57-.57-.8-1.17-.6-1.79.24-.75,1.15-1.15,2.81-1.22,1.67-.07,3.39.2,4.98-.31.57-.18,1.36.09,1.88.32ZM253.39,109.06c.52.43,1.03.81,2.03,1.08,1.29.34,1.48.67.84,1.29-.32.32-.84.59-1.25.89-.08.06-.17.1-.27.15-.43.04-1.09.43-1.55.71-.47.1-.94.2-1.38.32-.9.25-1.78.31-2.84.25-3.05-.17-4.73.51-4.88,1.89-.02.16-.02.32.03.48.11.36-.19.54-1,.58-1.05.05-2,.33-3.42.31,2.83-1.34,3.53-2.97,4.16-4.61.29-.77.41-1.53.19-2.3-.13-.47.23-.78.93-1.1,1.1-.51,2.41-.79,3.93-.89,2.05-.14,3.47.14,4.47.96ZM254.29,100.61c1.05.31,1.65,1.16,1.28,1.83-.36.66-1.8,1.3-3.03,1.34-.69.03-.89-.17-.92-.41-.04-.32,0-.64,0-.87-.2-.54-.2-.98.1-1.42.41-.6,1.44-.8,2.57-.47ZM239.7,103.19c2.54-.44,3.28-1.45,3.9-2.5.64-1.1,1.75-2.1,3.02-3.08.47-.37,1.03-.71,1.89-.9.87-.2,1.83-.25,2.67-.02.88.25,1.09.67.92,1.11-.17.44-.38.89-.75,1.3-1.17,1.27-1.71,2.57-1.33,3.95.14.51,0,1.05,1.25,1.33,1.21.27,2.22-.03,3.21-.28.49-.13.92-.31,1.4-.45.48-.14.96-.29,1.48-.38.74-.14,1.55-.22,2.2.08.58.26.45.6.26.91-.47.75-1.44,1.34-2.64,1.85-.36.1-.7.19-.95.26-.92.28-1.87.53-2.85.75-.37.09-1.89.3-2.52.49-.56-.03-1.2-.03-1.93,0-.41.02-.81.16-1.34.01.2-.22.41-.45.61-.68.55-.64.81-1.3.58-1.99-.26-.77-.9-1.45-2.7-1.71-1.82-.26-3.17.17-4.37.72-.65.3-1.12.67-1.49,1.05-.22.23-.43.46-.72.78-1.23-.82-.87-1.6-.4-2.37.06-.11.35-.22.59-.26ZM256.71,85.07c-6.47,4.86-11.95,9.96-17.46,15.05-.6.56-.59.56-2.33.7.06-.27.44-.46.7-.66,2.65-2.1,4.82-4.31,7.19-6.47,2.97-2.71,5.98-5.42,8.94-8.13.09-.08.18-.16.28-.24.09-.06.17-.13.25-.2.33-.29.66-.58.97-.87.63.07.98.46,1.71.41-.09.14-.06.28-.24.41ZM271.65,77.82c1.54-.13,2.07.15,1.5.79-.37.42-.95.79-1.6,1.13-3.39,1.8-7.35,3.31-11.76,4.59-.85.25-1.71.43-2.75.3-.25-.52-.05-.97.71-1.41,2.72-1.58,5.72-3.04,9.21-4.28,1.4-.5,2.87-.96,4.68-1.12ZM280.35,67.87s.02-.03.03-.04c-1.29.65-2.17,1.42-3.13,2.17-3.41,2.67-6.72,5.38-10.49,7.96-.39.27-.75.54-1.3.76-2.56.99-4.81,2.11-6.83,3.32-.17.1-.26.23-.51.3-.41-.49,0-.83.58-1.11,7.54-3.63,13.01-7.88,18.03-12.26.49-.42,1.22-.8,1.37-1.29.52-.1.64-.56,1.49-.35.46.12,1.08.21.75.54ZM281.45,66.62c-.08.13-.18.25-.26.38-.64.34-.78.27-1.65-.13-.92-.42-1.56-.92-1.88-1.48-.73-1.25-.95-2.53-.46-3.8.19-.49.38-1.21,1.6-1.22,1.38-.01,1.31.73,1.44,1.21.47,1.65.86,3.3,1.28,4.96-.03.04-.05.07-.07.1ZM304.65,44.65c.6-1.29,1.3-2.57,3.12-3.64.75-.45,1.65-.84,3.04-.7,1.39.14,2.13.6,2.51,1.19.24.37.35.74.18,1.14-.65,1.51-2.67,2.64-5.1,3.86-.67-.79-1.58-1.3-3.21-1.41-.58-.04-.63-.23-.53-.43ZM299.76,45.81c-.23-.49-.38-.98-.25-1.48.11-.42.34-.82,1.11-1.1.53-.19,1.04-.17,1.41.12.91.71.11,2.31-1.41,2.81-.28-.06-.7-.26-.86-.34ZM300.88,46.97c.63-.39,1.36-.74,2.3-.99,1.85-.48,3.38-.19,3.87.74.22.41.15.82-.05,1.24-.55,1.12-1.79,2.08-3.29,2.99-.56.34-1.15.66-1.74.99-.31.11-.64.2-.99.28-.27.06-.55.1-.84.13-1.54-.04-2.38-.48-2.35-1.25.08-1.52,1.1-2.89,3.08-4.12ZM294.32,50.85c-.41-.86-.92-1.72-1.03-2.6-.06-.49.04-.96.21-1.43.08-.22.22-.48.76-.54.66-.07,1.01.18,1.34.39.47.29.75.63.87.97.31.89.69,1.77.54,2.68-.05.35-.13.7.1,1.05.13.2.55.47-.08.59-.27.05-.57.12-.88.15-.03,0-.06-.02-.09-.02-.61-.14-.98-.42-1.28-.7-.18-.17-.31-.35-.46-.53ZM291.49,57.66c.67-1.18.65-2.41,1.05-3.61.37-1.12,4.21-1.98,6.36-1.37,1.15.32,1.48.84,1.27,1.42-.22.61-.77,1.16-1.46,1.69-.98.75-2.11,1.46-3.3,2.15-.43.22-.88.43-1.45.57-.22.05-.45.08-.67.1-.56-.14-.98-.39-1.55-.52-.36-.08-.35-.25-.25-.42ZM288.15,57.04c-.25-1.23-.68-2.44-.66-3.68.01-.64-.07-1.28.37-1.91.15-.22.27-.45.87-.48.57-.03.92.15,1.21.34.88.57,1.27,1.21,1.37,1.9.12.8-.03,1.6-.2,2.4-.12.57-.08,1.15-.14,1.73-.02.21.13.49-.42.59-.54.1-1.14.13-1.59-.09-.15-.22-.46-.64-.81-.8ZM288.3,59.01c.14-.07.32-.13.51-.18.84-.21,1.69-.35,2.63-.09.89.24.9.62.88,1.12-.25,1.01-1.32,1.98-2.76,2.88-.97.61-2.16,1.12-3.51,1.55-1.08.35-1.78.27-2.36-.27-.38-.35-.52-.72-.32-1.13.76-1.52,2.66-2.76,4.93-3.89ZM291.02,63.4c-.46.08-.9.2-1.58.13.18-.26.6-.4.94-.56.34-.16.66-.08.89.05.25.15.19.31-.24.38ZM282.5,60.68c-.49-.83-1.04-1.65-1.27-2.51-.24-.87-.26-1.72.31-2.57.17-.24.38-.52,1.02-.57.73-.05,1.16.18,1.49.45.53.43.82.89.83,1.37.02.99.1,1.99-.08,2.97-.09.5-.54.97-1.43,1.3-.14-.06-.29-.11-.42-.17-.18-.08-.33-.18-.45-.28ZM282.43,64.06c.8.26,1.34.63,2.28.76-.69.43-1.82.58-2.29,1.03.07-.57-.88-1.15.02-1.79ZM293.16,64.74c-2.21,1.39-4.96,2.45-8.85,2.77-.49.04-.99.05-1.48.03-.14,0-.27,0-.38-.01,0,0,0,0,0,0-.93-.37-.17-.86-.15-1.29,0-.14-.01-.22-.05-.26.05-.04.1-.07.18-.11h0c1.65-.22,2.97-.71,4.42-1.11,1.65-.46,3.38-.83,5.38-.79,1.36.02,1.74.28.95.78ZM303.09,59.52c-.31.28-.74.55-1.22.78-2,.97-4.33,1.76-6.86,2.42-.61.16-1.26.3-2,.3-1.48,0-1.94-.35-1.25-.97.45-.4,1.03-.79,1.24-1.22.37-.75,1.38-1.23,2.71-1.64,1.67-.51,3.45-.91,5.5-.96,2.01-.05,2.77.48,1.87,1.28ZM306.81,53.38c.33-.05.71-.03,1.07-.02,1.27.07,1.75.43,1.2.94-.25.23-.61.44-1,.62-.55.25-1.15.49-1.79.69-4.06,1.29-8.48,2.34-12.38,3.73-.17-.09-.24-.17-.25-.24.44-.14.85-.3,1.19-.49.48-.13.82-.34,1.19-.53,1.68-.84,3.21-1.72,4.45-2.71,1.39-1.1,3.73-1.64,6.31-2ZM314.72,47.97c-.23.34-.66.64-1.15.92-2.81,1.62-6.25,2.91-10.31,3.86-.32.07-.64.15-.98.19-.4.05-.86.12-1.21-.04-.18-.08-.21-.15-.17-.22.48-.14.9-.33,1.27-.53.34-.08.6-.23.88-.35,2-.89,3.7-1.88,4.65-3.09.68-.87,2.25-1.29,3.87-1.71.49-.12,1.1-.14,1.68-.09,1.24.11,1.82.52,1.45,1.06ZM159.01,141.01c-.08-.26-.21-.54-.94-.56-.61-.02-.87.22-1.01.43-.25.4-.49.81-.61,1.22-.17.56-.3,1.12-.44,1.69h.91c.15-.8.39-1.61,1-2.43.47.48.31.83.29,1.18-.02.42-.05.84-.11,1.26h.75c.05-.77.11-1.53.21-2.3.02-.16-.02-.32-.07-.48ZM165.07,97.66c-.51-.91-1.46-1.04-3.12-.44-.15.06-.28.03-.37-.15.28-.3.47-.71.38-1.13-.24-1.18-2.31-1.82-4.86-1.51-1.6.19-2.78.63-3.75,1.22-.32.19-.47.45-1.14.61,0-.75.08-1.42-.02-2.08-.14-.97-1-1.81-2.61-2.47-1.19-.49-2.43-.5-3.7-.06-1.1.38-1.85.88-2.51,1.43-.2.16-.13.49-1.05.41-.47-2.62-.55-5.25-.11-7.88.06-.35.53-.38,1.14-.43,3.71-.26,7.19-.83,10.57-1.55,2.54-.54,4.89-1.21,6.87-2.12.81-.37,1.55-.76,2-1.24,1.06-1.11-.42-2.2-3.09-2.28-.52-.02-1.05,0-1.7,0,.37-.33.71-.57.94-.84.65-.76.39-1.13-1.22-1.57-.36-.1-.42-.22-.59-.35-.82-.66-1.51-.76-3.16-.53-.9.12-1.54.46-2.7.61.2-.66-.02-1.23-1.15-1.6-1.52-.5-3.15-.55-4.85-.18-1.19.26-2.22.63-3.31,1.06-.21-.48.29-.8.38-1.15.03-.12.18-.24.26-.37.15-.24.48-.36,1.01-.44,4.86-.74,8.73-2.17,12.5-3.65.97-.38,1.78-.84,2.4-1.35.63-.51,1.03-1.06.94-1.66-.18-1.19-2.07-1.86-4.69-1.67-1.38.1-2.54.41-3.67.76-.44.13-.73.42-1.46.34-.08-.38-.03-.78-.27-1.14-.18-.27.19-.4.43-.56.16-.05.31-.11.45-.15,3.46-.71,5.61-1.94,6.38-3.61.58-1.25-1.79-2.12-4.52-1.74-1.04.14-1.9.44-2.71.76-.44.18-.89.35-1.47.58,0-.45.44-.71.71-1,.91-.98,1.81-1.96,2.39-2.99.31-.56.71-1.12.47-1.71-.38-.94-1.68-1.22-3.53-.73-.37.1-.6.26-1.1.1-1.28-.42-2.12,0-2.93.36-.98.44-1.27,1.06-2,1.64-.71-.47-.61-1.07-1.41-1.43-1.34-.6-1.42-1.37-1.67-2.12-.16-.48-.29-.95-.5-1.43-.41-.94-.36-.98,1.85-1.14,1.36-.1,2.63-.32,3.74-.69,2.52-.82,4.28-1.89,4.86-3.29.2-.5.49-.84,1.71-1.05,1.54-.26,2.22-.98,1.89-1.66-.33-.67-1.19-1.18-2.57-1.51.43.47,1.3.82,1.6,1.31.43.71-.23,1.29-1.78,1.51-.99.14-1.97.09-2.97,0-3.72-.33-4.55-1.08-2.87-2.6.34-.3.96-.58.84-1.06-1.41.7-2.53,1.37-2.75,2.24-.08.32-.34.46-1.04.45-.79,0-1.57,0-2.33-.13-1.82-.31-2.5-.93-1.9-1.76.54-.74,1.67-1.26,3.18-1.62.51-.12,1.05-.22,1.83-.39-1.57-.15-2.52.14-3.53.37-1.31.3-2.81-.03-3.15-.67-.42-.79.81-1.52,2.61-1.51.7,0,1.4.12,2.09.19.98.1,1.95.18,3.06-.28-.33.02-.58,0-.8-.04-.13-.08-.33-.15-.5-.21-.24-.09-.46-.2-.65-.31-.22-.23-.6-.44-.79-.68-.58-.76-.44-1.46.73-2.08.62-.33,1.41-.57,2.42-.49,1.06.08,1.39.46,1.72.88.67.86.5,1.74.39,2.62,1.24-.82,1.12-1.69.7-2.58-.6-1.26.4-2.24,2.88-2.79,2.46-.55,4.67-.04,5.04,1.18.27.89-.22,1.72-1.01,2.53-.33.34-.72.68-1.08,1.01.83-.26,1.39-.62,2.06-.92.95-.43,2.48-.47,3.56-.15.89.26,1.15.67.8,1.29-.44.78-1.58,1.32-2.99,1.77-.02,0-.05,0-.07.01-.38.06-.71.16-1.03.27-.09.02-.17.04-.21.08-.09.03-.17.07-.25.1.14.14.53.18.87.16.33-.01.66-.07.99-.05.55.03.98.26,1.09.5.11.24-.04.5-.27.73-.53.52-1.51.95-2.68,1.17-.87.16-1.78.1-2.61.2.16.57,3.55.16,4.23,0,1.73-.42,2.82-1.32,2.69-2.2-.05-.36-.35-.75-1.05-.93-.1-.03-.2-.04-.31-.06,1.19-.39,2.09-.92,2.65-1.6.87-1.05-.53-1.94-3.02-2.04-.6-.02-1.24.22-1.81-.04.42-.79.92-1.56.34-2.37-.86-1.21-3.32-1.77-5.92-1.29-1.72.32-2.98.88-3.79,1.63-.18.17-.29.36-.49.53-.1.09-.35.1-.55.06-.21-.05-.18-.14-.14-.22.09-.14.18-.28.27-.42,1.4-.85,1.19-1.69-.75-2.19-.82-.21-.71-.39-.44-.68.85-.95,1.02-1.94.51-2.92-.69-1.31-2.82-1.75-5.15-.83-.7.28-1.32.64-2.21.81-.41-.11-.75-.27-1-.46-.28-.4-.39-.81-.51-1.23-.16-.59-.52-1.14-1.73-1.48-.53-.15-.68-.4-.99-.61-1.67-1.1-6.78-1-8.09.19-.49.44-1,.57-2.03.64-3.16.2-4.89,1.17-4.8,2.6.02.26.08.52.23.76.24.38.12.59-.87.68-1.22.11-2.17.5-2.23,1.04-.08.67-.84.64-1.92.67-4.35.12-7.11,1.69-6.55,3.62.36,1.22,1.56,2.25,3.31,3.18.49.26,1.2.45,1.48.79-.38.2-.83.09-1.22.1-3.15.11-5.85,1.11-6.65,2.48-.82,1.4.8,2.87,3.59,3.17,1.01.11,2.02.14,2.98.08,0,0,0,0-.01.01.48,0,1.06-.11,1.61-.22.03,0,.06-.01.1-.02.31-.06.6-.13.86-.17.25-.04.5-.09.74-.14.28.08.25.24.26.38.09,1.04,1.13,1.85,3.11,2.38.68.18,1.01.4,1.14.75.12.31.41.61.72.9,2.03,1.87,6.4,3.11,12.11,2.8.47-.02.94-.03,1.41-.05.39.02.73.07.75.37.02.33.21.67.34,1.05-3.27-.05-4.03.91-4.27,2.15-1.41-.56-2.79-.76-4.22-.26-.66.23-1.26.48-1.55.79-.08-.02-.16-.04-.24-.05-.22-.04-1.59-.24-2.08-.16-1.96-.18-3.67.37-3.87,1.39-.1.51.01,1.02.35,1.52,1.24,1.82,2.93,3.55,5.33,5.12,1.18.77,2.52,1.48,4.37,1.95.24.06.43.13.55.22-.63.16-.83.6-.47.83-.4.48-.25.96.47,1.49.38.28,1.06.49,1.07.86h.05s-.06.04-.09.06c0,0,0-.02,0-.03-.53.06-.99.09-1.41-.16-.6-.37-1.47-.61-2.41-.77-2.4-.41-4.24.04-4.81,1.18-.4.79.02,1.52.79,2.23,1.38,1.27,3.5,2.25,5.99,3.08,2.16.72,4.43,1.29,7.25,1.01.04.05.07.1.11.16-.21.18-.7.16-1.16.16-1.78.02-3.15.37-4.09,1.04-.16.12-.32.22-.54.29-.17-.1-.36-.19-.55-.28-.15-.07-.29-.14-.44-.21-.37-.28-.91-.52-1.47-.74-.17-.07-.35-.13-.52-.18-.24-.09-.51-.17-.72-.17-1.72-.32-3.43.05-4.24.99-.59.69-.44,1.38-.1,2.09.31.63,1.06,1.18,1.6,1.75-.28.15-.57.12-.84.13-3.68.08-5.34,1.23-4.01,2.77.69.8,1.88,1.44,3.34,1.97,3.15,1.15,6.76,1.91,10.58,2.48,1.04.15,2.15.22,3.1-.09.72-.23,1.2-.19,1.85.05.55.2,1.11.31,1.13.72.04.9.17,1.8.44,2.69.75,2.47,1.4,4.94,1.62,7.6-1.3-.67-2.41-1.26-3.88-1.65-.15-.04-.19-.17-.3-.25-1.6-1.22-3.11-1.33-5.46-.42-.48.19-.87.36-1.62.38-2.27.07-3.46.68-3.44,1.69,0,.25.11.49.16.73-.4.11-.76.04-1.1.03-2.42-.03-3.9.52-4.25,1.6-.15.48-.04.96.28,1.43.94,1.4,3.02,2.39,5.64,3.17,3.41,1.01,7.23,1.52,11.25,1.74,1.02.06,2.11.04,3.05.21.15.18.55.45.61.54.26.33.43.68.57,1.02.01.07.03.14.05.2.49,1.79.71,3.59,1.07,5.38.57,2.82,1.27,5.63,1.93,8.44.61,2.62,1.14,5.25,1.89,7.86,1.14,3.99,2.17,7.98,2.92,11.98.21,1.14.48,2.28.8,3.42h1.46c-.03-.11-.05-.22-.08-.33-.98-4.38-1.46-8.78-2.69-13.16-.85-3.03-1.61-6.06-2.42-9.1-.93-3.45-1.89-6.89-2.8-10.34-.42-1.61-.96-3.2-1.77-4.83-.03-.12-.06-.24-.09-.36-.03-.14-.07-.28-.19-.41-.02-.02-.07-.06-.14-.11.52.07,1.05.1,1.59.12.29.05.54.14.8.23.19.06.41.12.63.14.52.07,1.17,0,1.66.07.03.12.13.28.17.4,0,.02.01.05.02.07,0,.04,0,.07-.03.09.02-.01.03-.03.04-.04.57,2.52.9,4.98.91,7.46.02,2.45.38,4.89,1.38,7.3,1.57,3.77,2.55,7.56,3.15,11.38.6,3.82,1.33,7.63,2.38,11.44h1.27c-.93-4.42-1.61-8.85-2.23-13.29-.36-2.57-.93-5.12-2.06-7.65-1.18-2.65-2.04-5.32-2.34-8.03-.32-2.89-.5-5.79-2.03-8.62-.11-.22-.19-.43-.03-.59.19-.03.42-.05.61-.09.42-.08.69-.27,1.1-.36.46-.1,1.01-.06,1.51-.08,4.73.45,8.83-.2,12.33-1.82,2.29-1.06,3.69-2.37,4.51-3.79.34-.59.46-1.21.12-1.82ZM142.5,75.06c.78-.67,4.21-1.41,5.9-1.27,2.3.18,3.32,1.31,1.98,2.23-.73.51-1.61.97-1.83,1.59-.03-.21-.4-.33-.65-.48-.8-.46-1.48-.49-2.56-.18-.72.21-1.07.58-1.77.88-1.06-.75-.87-1.58-1.35-2.32-.08-.13.11-.31.27-.45ZM151.83,65.33c.9-.2,1.78-.42,2.76-.52,2.14-.23,3.67.34,3.62,1.34-.02.47-.41.88-.94,1.27-.72.52-1.61.98-2.6,1.4-2.66,1.13-5.51,2.15-8.6,3.03-.64.18-1.27.41-2.51.5.79-.46,1.33-.76,1.83-1.07,2.05-1.27,3.52-2.66,3.84-4.24.16-.82,1-1.36,2.6-1.72ZM150.24,59.27c.41-.17.91-.32,1.42-.43.99-.22,2.04-.38,3.01,0,.91.35,1.05.83.79,1.33-.35.68-1.08,1.27-2,1.8-.82.29-1.51.66-2.32.95-.72.26-1.44.39-2.3.48-1.13-.83-2.88-1.05-5.04-.94.03-.42.73-.58,1.13-.81,1.55-.89,3.48-1.61,5.31-2.38ZM142.21,57.12c-.17-1.29,1.15-2.36,2.71-3.37.83-.53,1.55-.45,2.12.17.26.29.42.59.65.94.33-.37.07-.68.1-1,.03-.39.62-.59,1.37-.62.86-.03,1.26.24,1.33.6.08.42-.05.83-.34,1.23-1.34,1.86-2.84,3.69-4.71,5.46-1.24,1.17-2.9,2.14-6.3,2.34.55-.64,1.07-1.23,1.58-1.82,1.1-1.27,1.67-2.58,1.5-3.95ZM138.5,52.85c-1,.2-2.13.01-3.1.25-.64-.3-.49-.69-.73-1.01-.23-.3-.27-.67-.76-.89-1.47-.65-1.3-1.48-1.45-2.29.47-.06.94-.09,1.21.17.76.73,2.13.76,3.88.61,0,1.08.99,2.06.96,3.15ZM136.07,49.29c-1.04,0-1.61-.29-1.58-.82.05-.67,1.54-1.39,2.79-1.35.84.03,1.49.43,1.49.91,0,.64-1.31,1.25-2.7,1.26ZM141.35,42.95c.35-.05.68.02.91.17,1.2.83,3.05,1.1,5.11,1.2,1.4.07,1.47.1.99.71-1.48,1.9-4.33,3.16-8.81,3.81.12-.96.07-1.8-2.42-2.09,1.14-1.19,1.67-2.39.81-3.79,1.33.04,2.38.11,3.42-.03ZM136.35,36.64c-1.57.28-2.27.83-2.26,1.57,0,.69.81,1.13,2.26,1.33.12.02.22.08.34.12.07.39-.9.52-1.09.86-.93-1.04-1.79-1.29-4.13-1.2-.36.01-.72.09-.93-.09-.77-.63-2.01-.98-3.48-1.2-.33-.05-.15-.21-.23-.32,1.18-.12,1.77-.57,2.48-.94.56-.29,1.04-.61,1.51-.93,1.93-1.31,4.44-1.28,6.15.07-.05.16-.01.33.15.46.12-.02.2-.05.27-.1-.07.27-.62.28-1.05.36ZM137.43,36.26h0s0,0,0,0c0,0,0,0,0,0ZM140.27,36.49c.12.14.21.28.28.42-.38.04-.78-.11-1.16-.15-.76-.07-1.41-.23-1.94-.49,0,0,0-.02,0-.03.32-.27.23-.79,1.23-.68.26.03.46.11.63.2,0,0,0,0,0,0,.27.26.52.52.95.73ZM143,30.37c.73.11,1.06.35,1.23.64-.25.31-.37.75-.65,1-.16.14-.48.42-.86.66-.15.03-.32.06-.5.07-2.02.19-3.13.81-3.38,1.73-.06.22-.06.45-.35.62-.06,0-.11,0-.16.02-.34.05-.63.15-.86.27-.2,0-.4-.04-.59-.16-1.1-.7-2.65-.79-4.43-.62-.17-.39-.37-.68.78-.84,2.91-.4,5.02-1.3,6.87-2.34.36-.2.69-.41,1.01-.62.46-.3.94-.59,1.89-.44ZM123.43,23.65c-.55,1.3,1.03,2.27,2.52,3.26.7.46,1.23.97,1.64,1.51.45-.47.12-.89-.33-1.28-.49-.43-.99-.86-1.57-1.26-1.02-.72-1.21-1.48-1.02-2.31.12-.52.59-.84,1.72-.96.48-.05.97-.12,1.46-.14,2.6-.11,3.58.31,3.35,1.5-.12.64-.49,1.26-.71,1.9-.22.63-.43,1.26.44,2,.07-.82.04-1.5.48-2.17.42-.64.74-1.29,1.11-1.97.17.28.62.66.74.85.44.72,1.08,1.41,1.89,2.06-1.92,1.14-2.76,2.48-3.34,3.91,1.01-.25,1.28-.67,1.43-1.06.68-1.76,3.61-2.7,6.53-3.63.91-.29,1.54-.18,2.02.31.76.76.84,1.59.35,2.36-1.38,2.15-4.2,3.84-8.49,4.99-1.16.31-1.27.27-1.79-.31-.31-.36-.62-.72-.94-1.07-1.15-1.29-3.38-1.85-6.37-1.86-.77,0-1.54.03-2.3-.05-2.55-1.12-3.64-2.54-4.11-4.1-.38-1.26,1.25-2.41,5.29-2.45ZM114.73,28.86c.12-.43.52-.8,1.3-1.06.89-.3,1.5-.23,1.97.23.47.46.88.95,1.59,1.35.68.39,1.35.8,2.6.84-.97.35-1.94.7-3.02,1.08-.42-1.01-1.56-1.68-3.75-1.93-.58-.07-.76-.26-.69-.52ZM106.9,32.8c-.33-1.13.52-2.02,2.71-2.62,2.07-.57,5.35-.53,7.14.06.68.23,1,.54,1.13.9.25.7.47,1.4.73,2.09.24.63.75,1.21,1.82,1.68-.58-.66-.9-1.33-1.19-2.02-.35-.83.45-1.37,1.9-1.77,2.97-.82,6.68-.3,8.45,1.06,1.93,1.48,1.95,2.84-.49,4.18-.8.44-1.54.9-2.31,1.35-.36.1-.7.26-1.07.28-1.97.09-3.48.46-4.6,1.23-.56.39-1.74.16-2.63.25-.75.08-.91-.24-1.21-.44-1.03-.68-2.53-1.11-3.92-1.62-3.27-1.2-5.88-2.62-6.46-4.6ZM113.48,41.08s-1.86.58-3.17,1.03c-.34.05-.68.09-1.04.11-1.95.06-3.77-.02-4.89-.84-1.1-.81-1.01-1.65.03-2.47,1.86-1.47,5.1-1.88,8.41-1.06,1.7.42,3.23.94,4.51,1.74-1.59.38-2.77.93-3.81,1.54-.02-.02-.03-.03-.05-.05ZM115.47,44.11c-1.62-.75-2-1.86-.93-2.75,1.08-.9,3.55-1.59,6.28-1.7-.43.67-.5,1.32.44,2.15,0-.6-.02-1,0-1.39.07-1.49,2.95-2.36,6-1.81,1.88.34,2.81,1.03,2.28,1.91-.91,1.5-2.44,2.8-6.07,3.34-1.05.15-.66-.19-.85-.37-.84.3-1.61.64-2.5.89-1.67.48-3.27.36-4.64-.27ZM131.52,48.65c-.11,0-.21.03-.31.05-.46.1-.95.17-1.46.21-.3.03-1.02,0-1.31.06-.45,0-.9,0-1.34-.04-4.63-.36-8.51-1.85-9.62-3.8,2.09-.01,3.61-.69,5.53-.92,1.6-.19,1.6-.22,2.06.46,1.09,1.59,3.33,2.81,6.17,3.83.14.05.28.1.42.15-.04,0-.08,0-.12,0ZM130.96,48.05c-2.36-1.21-4.45-2.5-5.77-4.04.96-.3,1.89-.59,2.94-.91,1.12.71,1.85,1.57,3.61,2.09-.79-.6-1.47-1.24-2.39-1.8-.69-.42-.9-.72-.15-1.18,1.03-.62,1.74-1.33,1.76-2.13.01-.44.58-.45,1.27-.43.82.02,1.49.19,2.13.4.45.15.66.42,1.23.51-.45.84-.29,1.6,1.41,2.14.64.2.62.48.66.77.14,1.08-.49,2.1-1.08,3.12-.13.22-.38.42-.86.53-1.38.31-2.05.86-2.37,1.55-1.09-.03-1.79-.29-2.39-.6ZM132.24,48.9s-.03-.02-.05-.03c.03.01.06.02.09.03-.01,0-.03,0-.04,0ZM129.34,52.12c.32-.7,1.17-1,2.48-.96.43.01.87.05,1.14.21.87.52,1.18,1.15,1.58,1.76.04.07-.1.19-.24.25-1.57.57-2.43,1.37-3.5,2.26-1.16-1.2-2.01-2.31-1.45-3.52ZM124.34,61.79c-3.29-1.97-5.58-4.16-7.13-6.52-.69-1.05.76-2.07,3.26-1.87.49.07,1.14.14,1.58.2-.06.19,0,.4.22.64.07-.05.21-.1.21-.15.01-.85,1.57-1.35,2.97-1.41,1.38-.06,2.55.44,3.2,1.31.39.52.81,1.03,1.46,1.49.38.28.6.55.41.91-1.06,1.96-.27,3.82,1.58,5.62.23.22.53.43.63.68-.37.16-.75.33-1.12.49-1.59.24-3.07.06-4.51-.32-1.07-.28-2.02-.62-2.75-1.06ZM127.01,65.19c-.25-.36-.31-.73-.27-1.09.22-.18.59-.46.83-.63.25-.02.51,0,.8.04,1.02.16,2.08.08,3.12,0,.23-.02.36-.05.43-.1.04,0,.07,0,.11,0,.45-.04.92-.12,1.16-.3.07-.05.11-.11.12-.17.2.02.34,0,.21-.22-.31-.52-.77-1.03-1.16-1.55-1.24-1.65-1.59-3.32-.35-5,.5-.68,1.17-1.31,2.25-1.84.96-.47,2.08-.8,3.58-.64,1.39.15,1.86.69,2.14,1.22.93,1.76,1.41,3.53.2,5.32-.54.8-1.02,1.6-1.76,2.37-.46.47-1.14.83-2.44.72-.37-.03-.73-.1-.56.18.12.2-.14.3-.45.39-1.93.54-3.06,1.33-3.58,2.33-.74-.09-1.39-.21-2.07-.24-1.63-.06-1.86-.12-2.32-.78ZM138.25,63.57c-.03.14-.24.22-.56.22-.11-.04-.3-.08-.3-.1.04-.15.31-.2.6-.21.09,0,.26.07.26.1ZM132.77,72.62c-.9.35-1.85.28-2.79.07-4.36-.99-7.55-2.48-9.51-4.49-.49-.5-.67-1.04-.18-1.59.54-.6,1.22-.81,2.64-.7,1.69.13,3.01.54,4.09,1.13,0,0,0,0,0,0,.35.29.82.61.75.86.11-.37-.44-.76-.11-1.11.16-.17.51-.28.89-.35.33-.06.69-.08,1.04-.1,1.05.09,1.5.3,1.54.82.02.32,0,.64.38.98.15-.42.31-.84.45-1.27.33-.96,1.34-1.75,2.88-2.41.47-.2,1-.37,1.65-.43.51-.05.84.04.72.3-.04.09-.15.18-.24.27-2.26,2.33-2.42,4.73-.94,7.15.19.31.31.6.27.92.47.01.82-.05.74-.31-.14-.45-.28-.89-.45-1.33-.68-1.8-.36-3.58.53-5.35.34-.66.86-1.29,1.77-1.84.47-.28.97-.55,2.06-.67-.97,1.11-1.71,2.16-2.09,3.25-.38,1.08-1.16,2.17-.34,3.28.53-1.44,1.18-2.86,2.04-4.26.32-.53.65-1.05,1.24-1.54.79-.64,1.93-.89,3.57-.78,1.49.1,2.26.44,2.49,1.24.92,3.13-1.08,5.84-5.82,8.15-.59.29-1.3.5-2.14.64.61.27,1.16-.12,1.84,0-.32.54-.75,1.09-.71,1.67,0,.12-.09.26-.41.31-.61.1-1.02.29-1.36.51-.08-.23-.3-.5-.49-.7.02-.29-.09-.58-.63-.87-.17.42.06.78.26,1.13-.07.1-.14.22-.2.34-.1-.08-.15-.18-.23-.28-.56-.74-1.44-1.38-3.2-1.63-.12-.02-.23-.04-.32-.07-.02-.08-.09-.16-.15-.24-.09-.11-.18-.22-.26-.34-.02-.02-.03-.04-.05-.06.18,0,.37,0,.58.02.61.06,1.25.03,1.64-.25-.85-.09-1.8.15-2.59-.16-.4-.16-.64.01-.87.1ZM120.62,74.17c.7-.73,1.93-.9,3.47-.52.05.01.1.03.15.04.86.37,1.66.76,2.45,1.16.09.04.17.09.26.14.07.09.13.18.1.26-.59,1.5-.03,2.93,1.33,4.49-2.3-.41-4.19-.85-5.82-1.41-1.97-.68-2.92-3.14-1.93-4.16ZM133.59,84.69c-.15.19-.52.3-.95.35-.86.09-1.72.05-2.52-.1-3.5-.66-6.87-1.43-9.76-2.55-1.36-.53-2.49-1.15-3.09-1.93-.86-1.13.62-1.95,3.23-1.78.69.05,1.37.17,2.03.29,3.88.7,7.52,1.52,9.19,3.44.42.48,1.64.79,1.55,1.51-1.97-.8-4.07-1.3-6.39-1.6,2.04.64,4.08,1.28,6.11,1.93.33.11.8.2.61.44ZM134.59,84.23c-.11-.75-.85-1.34-1.7-1.94-2.27-1.61-4.23-3.28-4.56-5.25-.1-.59.02-1.16.39-1.72.52-.78,1.79-1.27,3.38-1.27,1.79,0,3.41.22,4.28,1.03.69.65.91,1.35,1.18,2.05.3.79.55,1.59.91,2.37.32.69.84,1.36,1.96,1.93-1.09-1.97-2.82-3.95.27-5.9,1.38.69,1.97,1.47,2.66,3.48.61-.48,1.12-.93,1.74-1.35.39-.26.86-.58,1.67-.53.87.05.92.44,1.1.74.06.09.07.19.14.39.23-.27.39-.46.55-.65.9-.27,1.38-.72,2.07-1.08,1.03-.54,2.12-1.05,3.57-1.37,1.61-.35,2.22-.18,2.28.62,0,.13,0,.25,0,.39.61.03.69-.46,1.37-.28.67.18.63.47.49.77-.15.33-.52.6-.95.86-1.04.62-2.31,1.14-3.77,1.56-1.19.35-2.35.73-3.17,1.39.65,0,.96-.17,1.3-.28,1.65-.57,3.42-1.06,5.38-1.39.66-.11,1.36-.22,2.06-.25,2.05-.07,3.21.7,2.33,1.53-.5.47-1.3.85-2.18,1.18-4.68,1.79-10.15,2.85-16.07,3.5-.07,0-.14.02-.21.02-1.98-.08-3.87-.02-5.79.33-1.35.25-2.57-.2-2.67-.89ZM136.83,86.35c-.31-.77-.32-.78,1.48-1.06.73-.11,1.4-.34,2.25-.26.77.08,1.22.18,1,.65-1.09,2.33-.71,4.67-.05,7,.32,1.12.46,2.23.31,3.36-.09.7-.02,1.41-.02,2.11-1.81-.64-2.88-1.34-2.99-2.42-.32-3.14-.73-6.29-1.98-9.39ZM124.3,95.83c.22-.67,1.06-1.01,2.62-.95,1.14.04,1.65-.25,2.3-.55,1.63-.74,2.64-.7,4.25.25-1.93.23-3.1.82-3.86,1.6-.75.76-.82,1.55-.56,2.35.08.25.17.5.25.76-1.04-.69-2.46-1.23-3.79-1.8-1.11-.47-1.41-1.03-1.2-1.66ZM164.02,98.69c-.76,1.64-2.31,3.12-4.86,4.34-3.11,1.48-7.02,2.03-11.5,1.77-.08-.01-.15-.03-.23-.04-.75-.14-1.64.14-2.31.37-.82.11-1.64.2-2.5.21-.03,0-.06-.01-.09-.02-.26-.08-.45-.2-.73-.26-.31-.07-.68-.07-1.02-.1-.58-.06-.92-.26-1.38-.39-.04.02-.08.04-.1.07-.23-.17-.39-.37-.49-.61-.28.26-.24.64-1.37.52-3.12-.34-6.3-.59-9.25-1.2-2.9-.61-5.44-1.42-7.22-2.65-.75-.52-1.34-1.07-1.45-1.69-.11-.63.04-1.25,1.42-1.6,1.31-.33,2.52-.07,3.6.27.93.29,1.77.65,2.66.97.66.24,1.22.55,2.09.65.73.65,1.37,1.33,2.23,1.95,1.6,1.16,3.59,2.15,6.66,2.56-.12-.22-.58-.28-.91-.38-3.72-1.17-5.8-2.81-6.8-4.75-.54-1.06-.12-2.05,1.45-2.91,1.07-.58,1.88-.64,3.06-.1,2.66,1.21,5.12,2.52,6.93,4.03,1.05.87.85,1.88,1.14,2.83.08.27-.12.57.34.87.95-1.35.27-2.65-.04-3.94-.37-1.54-.51-3.08.29-4.6.46-.88,1.15-1.73,2.53-2.42,1.22-.6,1.98-.6,3.18,0,1.24.62,1.87,1.38,1.94,2.2.16,1.74.03,3.47-1.91,5.06-.64.53-1.18,1.09-1.28,1.72,1.58-1.34,3.52-2.58,4.73-4,.49-.57,1.03-1.13,1.92-1.61.76-.4,1.66-.71,2.79-.86,1.62-.21,2.84.1,3.31.82.45.69.24,1.35-.9,1.87-1.07.5-1.79,1.08-2.3,1.75.74-.08.78-.39,1.12-.59.75-.42,1.29-.93,2.8-.9.76.02,1.01-.44,1.89-.53.71.39.78.84.55,1.32ZM139.13,138.49c-6.82-8.34-12.47-16.83-17.36-25.43-2.12-3.74-3.84-7.52-5.23-11.33-.98-2.66-1.83-5.34-2.8-8-1.55-4.25-5.02-8.24-8.45-12.23-3.31-3.84-7.5-7.51-11.38-11.24-1.12-1.07-2.48-2.09-4.37-2.95.71.99,1.99,1.85,3.11,2.75.94.76,1.81,1.53,2.55,2.33,2.62,2.85,5.19,5.72,8.18,8.5,4.98,4.62,8.07,9.47,9.36,14.56,1.69,6.66,5,13.18,9.07,19.61,2.07,3.28,3.44,6.63,5.6,9.9,2.72,4.13,5.4,8.27,8.83,12.29,1.83,2.15,3.43,4.33,4.86,6.53h1.82c-1.1-1.79-2.34-3.55-3.78-5.3ZM134.38,137.1c-5.32-7.16-10.45-14.36-14.2-21.73-2.66-5.23-5.27-10.47-6.95-15.79-.71-2.26-1.3-4.52-2.12-6.78-1.1-3.04-3.31-5.91-6.08-8.71-3.95-3.99-7.79-8.01-11.71-12.01-1.1-1.12-2.24-2.23-3.81-3.23-.56-.36-1.04-.77-2.09-.9-.16-.72,1.2-.56,2.03-.7.08-.15.1-.31.24-.45,1.94-1.83,2.16-3.78,1.83-5.76-.11-.64-.43-1.27-1.17-1.84-.61-.47-1.4-.85-2.7-.8-1.28.05-1.97.48-2.43.98-.44.48-.52.99-.55,1.51-.03.57.28,1.12.49,1.82-.94-.37-1.21-.74-1.67-1.06-.96-.65-1.62-1.4-3.03-1.91-.19.34.31.59.61.86.92.84,2.08,1.62,3.43,2.33,1.36.72,2.04,1.52,2.19,2.52-1.33-.23-2.26-.57-2.84-1.1-1.71-1.56-3.72-3.04-6.12-4.41-.52-.3-.92-.34-1.67-.36-4.55-.09-8.65-.77-12.27-2.02-.85-.3-1.59-.65-2.05-1.1-.66-.64-.21-1.05,1.32-1.23,1.02-.11,1.98-.03,2.92.16,1.31.26,2.54.58,3.74.93,1.25.36,2.53.71,3.9,1.01-2.74-1.28-6.31-2.11-9.48-3.42,4.82-.04,7.36,1.2,9.64,2.65-.64-1.1-2.03-1.92-4.31-2.39-1.56-.32-3.18-.57-4.79-.84-2.77-.45-5.47-.94-7.83-1.75-1.47-.51-2.45-1.15-2.8-1.99-.18-.43-.22-.87.54-1.16.76-.29,1.63-.07,2.41.09,1.06.22,1.92.54,2.62.97.92.57,1.97,1.08,3.61,1.29-2.89-1.18-4.41-2.7-5.5-4.32-.2-.31-.44-.61-.42-.94.05-.86,1.28-1.23,3-.88,1.23.25,2.03.6,2.12,1.3.18,1.25.98,2.46,1.86,3.65.2.26.29.57,1,.77.23-.26,0-.48-.12-.71-.78-1.5-1.68-2.99-1.58-4.56.03-.63.29-1.22,1.03-1.75,1.03-.74,2.12-.78,3.44-.17.87.41,1.35.91,1.58,1.45.2.47.29.95.43,1.43.17.6-.09,1.03-1.23,1.5-3.23,1.34-3.38,4.31.23,5.82.03-.38-.43-.62-.67-.87-1.01-1.08-1.22-2.17-.4-3.29.32-.43.79-.83,1.48-1.16.44-.21.91-.45,1.64-.36.78.1.8.43.82.71.03.39.04.77-.05,1.16-.2.8-.52,1.59-.7,2.39-.09.38-.44.79.21,1.15-.02-.89.75-1.72,1.09-2.58.28-.73.72-1.44.62-2.19-.06-.43-.23-.95-1.14-1.07-1.56-.21-1.39-.67-1.35-1.19.04-.48.03-.97-.09-1.45-.22-.86-.82-1.78-2.59-2.11-2.01-.37-2.24-.86-1.71-1.64.06-.09.03-.19.04-.29.04-.93-.6-1.54-1.78-1.71-1.26-.18-2.78.17-3.85.95-.56.41-.96.86-1.52,1.38-.15-.49.02-.87.09-1.26.25-1.35.5-2.7-.38-4.02-.86-1.3-2.2-1.57-4.94-1.04-.6-1.11-1.7-2.11-3.41-2.97-.68-.34-1.41-.77-2.4-.75-1.72.04-2.16-.47-2.71-.99-.54-.5-1.19-.96-2.16-1.3-.45-.16-.96-.33-1.56-.2-.58.13-.7.39-.7.66,0,.46.28.89.67,1.31.83.9,2.08,1.68,3.29,2.48.31.2.85.36.71.67-1.87.08-2.15.24-2.11,1.05.01.27.41.53.14.84-.55-.12-1.05-.25-1.58-.34-1.76-.3-3.01.14-2.77.98.15.49.73.9,1.44,1.27,1.23.64,2.74,1.13,4.4,1.52.52.12.99.21.58.57-.49.45-.06.89.51,1.27.51.34,1.11.66,1.68.99-3.07.82-3.54,1.88-1.41,3.07.58.33,1.28.61,2.06.84,1.43.42,2.9.83,4.34,1.24.83.24,1.79.4,2.51.74-1.98.36-2.51.7-2.43,1.59.1,1.1,1.25,1.96,3.13,2.63,1.53.55,3.24.99,5.1,1.2,1.98.23,2.82.79,3.46,1.58-.34,0-.55,0-.76,0-2.7.05-3.86.89-2.7,1.97.63.59,1.65,1.05,2.81,1.44,3.46,1.16,7.43,1.6,11.68,1.61.75,0,1.33-.06,1.75.33,1.33,1.21,3.14,2.3,4.76,3.44.28.2.68.38.71.73-.51-.11-.82-.18-1.13-.25-1.9-.45-3.79-.9-5.7-1.34-.93-.21-1.9-.33-2.8.03-.72.29-.73.78-.05,1.34.63.52,1.52.94,2.61,1.26,3.29.97,6.66,1.88,10.59,2.24.46.04.76.15.97.32,0,0-.01,0-.02,0,1.52.94,2.71,1.97,3.65,3.05,3.4,3.86,7.12,7.65,11.12,11.39,4.13,3.86,6.84,7.9,7.88,12.16,1.14,4.63,2.7,9.23,4.74,13.81,4.42,9.92,10.68,19.6,17.98,29.15,1.61,2.1,3.3,4.19,4.95,6.29h1.77c-1.68-2.23-3.43-4.45-5.09-6.69ZM60.73,40.87c.47-.55,1.14-1.04,2.21-1.39.89-.29,1.57-.22,2.1.21.62.51.4,1.06.44,1.6.03.56-.17,1.02-1.29,1.41-1.35.47-1.65,1.24-1.93,2.02-1.75-.22-2.18-.72-2.17-1.4.01-.84-.03-1.67.65-2.46ZM59.35,43.79c-.88-.2-.9-.2-1.28-.63,1.12-.19,1.12-.17,1.28.63ZM46.92,32.45c.04-.25-.02-.56.64-.65.51-.07.93.13,1.29.29,3.08,1.32,4.79,2.87,3.87,4.84-.21.44-.25.9-.97,1.45-2.9-1.86-5.23-3.67-4.83-5.93ZM45.33,32.63c-1.62-1.03-3.02-2.1-3.48-3.49,1.97.2,2.48.94,3.45,1.47,1.21.66.31,1.32.02,2.02ZM45.04,34.19c.54.04.91.17,1.07.41.63,1,1.76,1.89,3.09,2.74.26.16.48.36,0,.5-.33.1-.69,0-.95-.12-1.86-.83-3.32-1.77-3.84-2.94-.18-.41.1-.6.62-.59ZM41.31,37.19c-.16-.1-.3-.22-.43-.33-.38-.35-.88-.76-.14-1.06.66-.26,1.47.03,2.15.2,1.67.4,2.83,1.06,4.13,1.65,1.24.57,1.48.57,3.28.32.3.51.62.93.32,1.41-1.04-.15-2-.58-3.16-.15-.29.11-.68.02-.99-.06-1.96-.53-3.81-1.12-5.15-1.98ZM47.91,44.9c-.35-.16-.65-.34-.91-.53-.78-.58-.79-1.2-.08-1.53.74-.34,2.19-.44,3.41-.16,2.23.51,4.55.93,6.65,1.55-.16-.43-.93-.63-1.63-.84-1.37-.4-2.72-.82-4.21-1.14-1.98-.43-3.49-1.09-4.26-2.01.11-.1.14-.19.23-.2,2.53-.39,2.56-.4,4.59.53,1.37.63,2.65,1.29,3.97,1.93.12-.04.23-.08.35-.12-.95-.58-1.91-1.15-2.86-1.73-.34-.2-.8-.38-1.02-.61-.37-.38-.72-.78-.86-1.19-.19-.57,1.62-.27,1.58-.8.76.22.32.63.91.76.24,0,.33-.04.32-.12-.14-.8-.38-1.6.12-2.39.08-.12.1-.26.2-.37.28-.33.46-.74,1.4-.77,1.09-.03,1.35.41,1.64.77.47.57.67,1.18.74,1.79.17,1.51-.24,3.02.27,4.52.11.32-.24.61-.44.91-.54.11-.29.28-.14.44.52.52.53.52-.82.65-1.12,1.08-.94,2.15.14,3.22.11.11.13.24.04.43-3.09-1.02-6.56-1.77-9.31-2.98ZM86.22,62.13c-.37-.79-.45-1.6.18-2.38.25-.31.51-.64,1.38-.65.85,0,1.21.31,1.53.59.52.46.81.97.92,1.48.33,1.54.33,3.08-.45,4.6-.26.52-.52,1.07-2.14,1.55.55-1.93-.65-3.55-1.43-5.2ZM85.79,67.36c-.28-.03-.55-.08-.8-.13-2.8-.64-5.57-1.29-8.1-2.13-1.16-.38-2.2-.83-2.68-1.46-.25-.32.1-.49.86-.42.21.02.41.06.6.1,3.49.79,6.97,1.6,10.49,2.37,1.21.26.69.79,1.09,1.11.04.55-.36.69-1.45.57ZM103.04,136.28c-2.09-3.31-4.9-6.51-7.8-9.7-1.39-1.52-2.64-3.06-3.41-4.67-.23-.48-.71-.96-.44-1.48,2.84.1,4.13-.05,6.25-.83,2.77-1.01,4.84-2.27,6.19-3.76.63-.7.93-1.43.58-2.17-.49-1.06-2.32-1.48-4.52-1.04-.81.16-1.55.39-2.43.62.11-.52.26-.97.3-1.41.05-.58-.01-1.16-.63-1.69-1.12-.96-3.37-1.06-4.87-.22-.29.16-.29.44-.9.48-.31-.22-.58-.45-.92-.65-.68-.41-1.54-.68-2.75-.56-1.01.1-1.65.54-1.73,1.2-.05.37,0,.75,0,1.12-1.35-.74-3.04-1.16-4.84-1.5-.04-.06-.08-.12-.13-.17-.01-.01-.03-.03-.05-.05,0-.31-.69-.59-.46-.91,1.01-.23,1.99-.42,2.91-.67,2-.54,3.83-1.16,4.25-2.29.13-.34.6-.4,1.24-.35,1.22.09,2.28.37,3.38.6,1.66.35,3.36.55,5.2.32,2.11-.26,2.88-.94,2-1.85-1.1-1.15-3.05-1.85-5.81-2.04-1.26-.09-2.54-.11-3.79-.16-.18-.31.42-.53.28-.77-.26-.47.13-.55,1.12-.63,2.66-.24,4.24-1.19,4.3-2.42.03-.75-.23-1.47-.78-2.18-1.06-1.35-4.31-2.29-7.51-1.27-.16.05-.27.05-.47-.12-.23-.84-.99-1.56-3.51-1.57-.26,0-.42-.03-.52-.07.03-.26.07-.53.09-.8.32-.55.18-1.11-.05-1.66-.54-1.26-1.79-1.64-4.69-1.52-.11,0-.24-.05-.42-.09.5-.63,1.08-1.25,1.29-1.92.28-.87-.06-1.67-1.45-2.33-1.23-.58-2.73-.75-4.55-.43-.02-.51-.01-.92-.19-1.33-.18-.43-.52-.83-1.27-1.09-.88-.31-.9-.55-.47-1.02,1.44-1.55.51-3.04-1.23-4.41-.84-.67-2.56-.7-3.91-.22-.74.26-1.12.65-1.63,1-.69-.17-.56-.51-.84-.77-.99-.89-2.81-1.11-4.63-.54-1.24.38-1.86.96-2.33,1.58-.2.27-.08.59-.69.82-.61-.2-.76-.59-1.35-.79.08-.04.16-.09.21-.14.26-.22.4-.47.48-.72.13-.16.23-.33.35-.49,1.21-1.66,1.73-3.38,1.69-5.13-.02-.78-.21-1.54-.76-2.28-.52-.69-1.24-1.38-3.07-1.44-1.73-.05-2.63.58-3.33,1.19-.58.51-.99,1.06-1.48,1.6-1.12-.24-1.27-.64-1.22-1.11.1-1.1.02-2.19-.8-3.24-.69-.88-1.8-1.61-3.8-1.98-2.5-.47-4.67.05-5.14,1.24-.21.54-.11,1.09.11,1.63.58,1.46,1.43,2.89,2.21,4.32.11.2.27.4-.06.69-.44-.35-.76-.64-1.14-.9-.43-.29-.87-.6-1.4-.85-1.27-.6-2.81-.74-4.27-.42-1.68.37-2.57,1.17-2.18,2,.57,1.21,2.15,2.17,4.03,3.02.77.35,1.28.72,1.72,1.18,1.77,1.85,4.29,3.41,8.74,4.13.38.06.6.13.71.3.22.33.49.65.86,1.12-1.65-.24-3.13-.32-4.61-.25-2.47.11-4.55.9-5.12,1.92-.56.99.39,2.05,2.38,2.71.5.16,1.22.19,1.5.49-2.26.9-2.89,1.83-1.73,3.11,1.57,1.75,4.13,3.2,7.81,4.09,1.63.39,2.33.79,2.17,1.56-.01.05-.1.11-.2.2-.64-.11-1.27-.26-1.94-.34-3.03-.39-4.94.44-4.25,1.84.67,1.37,2.65,2.2,5.53,2.56,1.79.23,3.63.36,5.46.51.02,0,.04.01.05.01.49.13,1.05.08,1.37.35.02.01.03.03.05.04-.01.03-.04.06-.11.09-1.04.54-.93,1.16-.55,1.84-.91-.18-1.6-.37-2.35-.45-1.98-.23-4.28.61-3.52,1.35.6.58.1.86-.48,1.25-.2.13-.37.29-.4.44-.24,1.12-.44,2.25-.11,3.36.23.75,1.3,1.09,2.93,1.06.26.02.53.04.79.05.26.01.53.03.78,0,.09,0,.17-.02.26-.04-.17.39.02.78.53,1.16.82.61,2.19.81,3.7.73,1.57-.09,2.78-.46,3.67-1.06.43-.29.58-.66,1.28-.91,1.76.67,3.88.92,6.11,1.03,2.42.11,4.78-.04,7.1-.36.09.18.29.39.35.47.04.06.08.12.1.18,0,.25-.36.4-1.15.51-1.18.17-1.7.66-1.95,1.19-.13.26-.17.54-.27.86-.67-.15-1.17-.27-1.69-.37-1.77-.32-3.04-.07-3.82.72-.3.3-.34.62-.39.94-.14.9.55,1.7,1.46,2.44-.26.17-.56.15-.83.17-2.66.24-3.55,1.03-2.41,2.12.47.44,1.13.83,1.97,1.13,5,1.83,10.76,2.46,17.07,2.09,2.39-.14,2.37-.22,3.36.73.18.17.35.35.52.53,3.87,4.22,7.47,8.49,10.81,12.8.43.56.89,1.13.74,1.8-.8-.19-1.05-.51-1.43-.76-1.9-1.28-3.79-2.57-5.87-3.8-1.35-.79-2.75-1.57-4.38-2.25-.79-.33-1.62-.65-2.65-.8-1.58-.23-2.72.1-2.87.84-.1.45.07.89.4,1.33.76,1.02,1.94,1.94,3.29,2.81,3.97,2.56,8.19,5.04,12.74,7.4.51.27,1.04.52,1.59.77h1.46c-1.33-.63-2.57-1.3-3.76-1.98-3.3-1.9-6.49-3.84-9.57-5.82-1.44-.92-2.79-1.87-3.74-2.92-.45-.5-.92-1.01-.56-1.7,1.26.17,2.04.49,2.81.82,2.03.87,3.8,1.84,5.41,2.87,3.72,2.36,7.38,4.74,11.05,7.12.79.51,1.51,1.05,2.07,1.61h.93c-.31-.49-.97-.91-1.43-1.37-.06-.06-.13-.11-.22-.17-3.39-1.99-4.6-4.39-6.01-6.73-2.37-3.95-5.49-7.77-9.35-11.48-.73-.7-1.48-1.39-2.68-1.95.81-.71,2.25-1.15,3.3-1.74.26-.15.55-.19.92-.13.35.05.35.19.35.31.2,3.43,3.33,6.5,6.24,9.56,3.45,3.62,5.96,7.36,7.91,11.18.35.69.67,1.38,1.09,2.06.09.15.14.3.15.45h1.48c-1.44-2.51-2.94-5.02-4.52-7.51ZM86.05,106.35c-.91.86-2.65,1.32-4.37,1.78-1.1.29-2.34.43-3.81.58,0-.57.05-1.01-.02-1.46-.04-.25.18-.44.46-.62,1.29-.86,3.08-1.41,5.32-1.66.88-.1,1.74-.05,2.34.29.62.34.47.72.08,1.09ZM70.11,105.12c-1.42-.16-2.81-.2-4.2-.22-.03-.02-.06-.04-.08-.06.01-.17-.21-.32-.31-.48-.02-.12,0-.23.05-.35.06-.12.2-.25.46-.29-.1-.05-.14-.11-.15-.17.08-.01.16-.03.26-.03h.01s0,0-.01,0h0c-.08-.02-.17-.03-.25-.05.01-.03.03-.06.05-.09.05.05.11.09.2.14.26-.62,1.61-.96,2.2-1.69-.86.36-1.47.58-1.98.84-.25.13-.46.27-.52.41-.25.09-.54.14-.84.14-1.6-.55-1.71-1.24-.25-1.95,1.04-.51,2.39-.81,3.83-1.03,4.12-.63,9.9.18,12.54,1.77-.65.24-1.08-.24-1.68-.1-.16.05-.11.09.05.14,2.75.92,2.89,1.21,1.08,2.52-.44.32-.81.68-1.73.9-.7-.77-1.31-1.54-2.72-2.3.12.64.82,1.03,1.12,1.48.33.48,1.08,1.03.23,1.47-.9.46-2.17.07-3.19-.06-2.73-.35-3.36-.88-2.76-2.16.35-.76,1.04-1.49,1.01-2.28-1.28,1.08-2.17,2.22-2.43,3.52ZM63.22,88.11c1.8.54,2.82,1.35,3.77,2.18.24.21.37.47.73.64.02.02.04.04.06.06.21.24.33.5.48.75-.7-.04-1.23-.27-1.88-.38-3.12-.49-5.62.34-5.43,1.82.03.28.31.56.07.86-1.2-.04-1.67-.45-2.23-.8-.17-.16-.38-.32-.6-.47-.86-.8-2.02-1.52-3.18-2.23-.7-.43-.72-.8-.31-1.25,1.41-1.57,5.38-2.12,8.54-1.18ZM59,86.77c.05-.18.38-.26.88-.22.33.03.49.13.46.27-.06.24-.44.31-.92.29-.35-.02-.44-.13-.42-.33ZM71.56,97.79c.26.22.68.41.55.7-.16.37.31.35.91.31.08,0,.26.27.47.49-1.78-.01-3.45.06-5.05.31-.62.1-.97.06-1.1-.23-.73-1.59-2.61-2.97-3.99-4.45-.52-.56-1.03-1.13-1.05-1.75-.03-1.16,1.69-1.69,4.1-1.24,1.74.33,2.83.96,3.68,1.68.23.2.45.4.67.6.18.42.68.86.87,1.27.05.1.09.21.11.32-.06.11-.15.22-.3.33-.7.55-.52,1.11.13,1.65ZM59.8,94.36c1.44.37,2.57.87,3.32,1.57,1.35,1.27,2.87,2.5,4.01,3.79-.07.05-.09.08-.14.1-.78.22-1.51.57-2.35.63-.97.07-1.36-.48-2.04-.74-1.59-.61-3.4-1.05-5.22-1.49-1.77-.43-3.44-.91-4.78-1.6-.76-.39-1.41-.81-1.74-1.31-.74-1.09.34-1.77,2.89-1.78,2.2,0,4.19.34,6.06.83ZM80.05,109.83c0,.19-.11.37-.27.55-.63.22-1.28.43-1.77.72-.37-.01-.75-.04-1.08-.11-1.13-.25-1.13-.74-1.25-1.21.43-.17.86-.34,1.29-.51,1-.41,1.91-.43,2.58-.1.24.21.5.41.5.67ZM91.96,103.01c2.67.06,4.8.58,6.12,1.67.92.75.39,1.23-1.5,1.38-1.45.11-2.83-.04-4.19-.28-1.32-.24-2.62-.53-4.12-.44-.36.02-.74.02-.95-.14-.97-.74-2.49-.77-4.13-.66-.19.01-.4-.03-.6-.05.37-1.15.38-1.13,2.73-1.34,2.2-.2,4.41-.18,6.62-.13ZM83.46,102.64c.31-.01.52.05.62.2.05.12-.19.13-.37.15-.3.04-.55,0-.58-.16-.02-.1.07-.18.32-.19ZM82.89,94.04c1.69-.15,2.63.14,2.79.91.12.58.04,1.15-.4,1.71-.37.48-.68.97-1.02,1.45.97-.21,1.18-.63,1.6-1,.39-.34.67-.71,1.13-1.03,1.59-1.11,4.31-1.1,5.92.01,1.19.83,1.67,1.79,1.58,2.76-.11,1.24-2.58,2.07-5.3,1.89-.2-.01-.41,0-.65.02,1.56.78,1.22,1.39-.89,1.7-2.12.31-4.19-.02-5.49-.87-1.44-.94-3.52-1.51-5.86-1.85-1.35-.2-2.22-.49-2.61-1.12-.2-.33-.8-.6-1.16-.91-.82-.71-.42-1.45.96-1.87,1.3-.39,3.89-.3,4.83.15.26.13.31.28.34.44.06.38.13.77.4,1.15.14-.63.21-1.27.43-1.9.3-.89,1.58-1.47,3.41-1.64ZM78.01,90.02c1.82-.35,2.98-.13,3.75.69.2.21.3.42.38.64-.13.22.02.77,0,.91-.06.51-.33,1.02-.95,1.44-.11.08-.23.15-.35.23-.03,0-.06.02-.09.02-1.31.33-1.81.97-2.23,1.64-1.83-.44-3.64-.64-5.54-.19-.31-.08-.57-.2-.72-.35-.17-.17-.19-.36-.21-.55-.01-.08-.02-.17-.03-.25.36-.86.97-1.7,1.91-2.48.93-.79,2.24-1.4,4.08-1.76ZM73.13,85.82c.6-.89,2.07-1.02,3.59-.38,1.13.48,1.47,1.11,1.39,1.76-.08.67-.39,1.34-.94,1.97-.21.24-.43.48-.93.63-2.6.79-3.78,1.97-4.5,3.29-.1.18-.26.36-.46.63-.7-.5-1.36-.96-2-1.41-.03-.04-.06-.09-.1-.13-.23-.31-.47-.62-.71-.93-.18-.24-.36-.55-.6-.84,0-.33.29-.64.88-.97,1.92-1.09,3.46-2.27,4.37-3.63ZM72.14,85.39c-.87,1.59-2.76,2.94-4.63,4.36-.69-.21-.83-.53-1.18-.78-1.06-.75-2.38-1.36-4.26-1.7-.86-.15-.84-.17-1.36-.62.62-.19,1.36-.17,2.04-.26,2.72-.35,4.73-1.33,4.8-2.55.04-.74.42-1.32,1.64-1.74.21-.04.44-.05.67-.04.05,0,.1,0,.15.01,1.99.72,2.82,2.08,2.13,3.32ZM66.32,77c1.11-.42,2.22-.38,2.78.23,1.33,1.44,2.81,2.9.75,4.45-.28.09-.63.15-.98.13,0,0-.02,0-.02,0-.04-.04-.06-.11-.04-.19.08-.38.17-.77.16-1.15-.01-.35-.07-.71-.26-1.04-.52-.93-1.32-1.17-3.94-1.21.11-.51.73-.9,1.55-1.21ZM51.89,68.58c.97-.54,1.94-.46,2.71.15,1.02.8,1.16,1.71,1.27,2.61.21,1.69-.11,3.35-.94,4.98-.31.19-.4.46-.64.68-.12.11-.3.21-.52.28-.17.06-.48.08-.68.13-.41-.09-.86-.14-1.31-.19-.53-.06-1.16-.05-1.23-.4-.02,0-.04.02-.06.03.86-1.04.44-2.09.15-3.13-.15-.54-.46-1.07-.83-1.59-.98-1.39.23-2.52,2.09-3.55ZM47.75,71.27c1.56,1.49,2.34,3.08,2.55,4.73.04.28-.13.58.17.85-.51.25-.95.48-1.76.07-.64-.33-1.51-.59-2.36-.82-1.96-.53-3.32-1.28-4.49-2.14-1.39-1.02-.93-1.99.4-2.88,1.61-1.08,4.27-.98,5.49.19ZM38.97,67.16c-.2-.48-.26-.96-.15-1.44.24-1.05,1.88-1.44,3.96-.94,1.39.34,2.2.9,2.78,1.53.9,1,.93,2.07,1.26,3.11.08.24-.21.37-.73.34-2.44-.12-4.01.48-5.47,1.45-.6-1.49-1.12-2.78-1.65-4.07ZM36.53,75.07c-.31.05-.54-.06-.71-.16-1.53-.89-3.04-1.79-3.73-2.9-.16-.25-.19-.51-.06-.76.45-.89,2.63-1.23,4.16-.64.59.23,1.09.51,1.5.81,1.76,1.27,2.98,2.69,5.59,3.9-2.52-.17-4.57-.57-6.73-.25ZM45.63,80.07c-4.3-.97-6.48-2.55-8.27-4.54,4.57-.07,8.08.67,11.63,1.76-2.24.68-3.09,1.6-3.35,2.78ZM38.33,83.66c.16-.84,1.43-1.46,3.46-1.77,1.87-.28,3.68-.06,5.5.09.51.04.79.26,1.11.44.53.29,1.08.57,1.86.98-.02-.46-.47-.63-.75-.83-.49-.36-1.04-.69-1.47-1.06-.39-.34-.77-.7-.95-1.07-.47-.96.17-1.79,1.9-2.4,1.17-.42,2.52-.5,3.8-.12,1.78.51,2.91,1.24,2.8,2.24-.05.45-.29.89-.38,1.34-.08.44-.31.89.08,1.45.85-1.07,1.06-2.09,1.53-3.08.28-.6.53-1.2.86-1.79.24-.44.72-.84,1.5-1.15,1.32-.52,2.6-.37,3.13.38.22.3.28.63.49.94.46.68.97.82,2.49.71,1.41-.1,1.87.01,2.21.69.84,1.65.09,3.13-2.75,4.31-.67.28-1.43.52-2.49.9,2.16-.21,3.3-.79,4.75-1.33.03.7-.61,1.18-1.5,1.59-1.28.59-2.87.94-4.69,1.08-1.14.09-2.15.11-2.41-.59-.4.21-.31.37-.25.51.29.7-.02,1.2-1.66,1.53-1.17.23-1.85.78-2.42,1.31-.55.51-.78.52-1.67.09-1.46-.71-3.01-1.37-4.8-1.92-.99-.3-.93-.63.14-.86.95-.2,1.96-.33,2.64-.75-1.64.33-3.35.51-5.12.57-1.45.05-2.87,0-4.19-.3-1.82-.41-2.9-1.26-2.74-2.12ZM48.52,93.72c-3.59-1.04-6.21-2.46-7.9-4.21-.51-.53-.71-1.11-.18-1.69.56-.61,1.37-.86,2.83-.78,1.75.1,3.25.48,4.65.93,2.35.75,4.29,1.7,6.08,2.71.99.56,1.92,1.13,2.9,1.7.15.11.29.23.42.34.22.2.39.42.36.64-.86-.12-1.74-.23-2.62-.32-1.93-.18-3.73-.09-5.09.63-.51.27-.91.22-1.45.06ZM61.79,107.73c0,.23.02.47-.07.69-.26.22-.54.44-.73.68-.45.59-1.36,1.13-2.69,1.45-1.34.32-3.11.24-3.97-.18-.9-.44-.81-1.15.2-1.77.52-.32,1.24-.52,1.91-.76.51-.18,1.19-.34,1.1-.82-.72.37-1.46.56-2.19.76-.87.24-1.54.56-2.12.94-.18.12-.32.24-.43.36-.56.06-1.17-.02-1.75.02-.14.01-.28.03-.42.04-.09,0-.2,0-.31-.01-1.52-.29-1.92-.74-1.69-1.71.15-.64.3-1.27.37-1.92.14-1.34,2.13-1.8,4.66-1.13.69.18,1.25.49,2.29.54-1.84-1.03-2.66-1.25-5.06-1.33-.54-.02-1-.04-1.24-.28-.22-.23-.01-.44.3-.62.73-.44,1.82-.58,3.06-.34,1.73.33,3.26.8,4.17,1.58.49.42.98.84,1.65,1.42.09-.89-.69-1.46-1.4-2.04-.55-.45-1.29-.85-1.67-1.34-.64-.84.57-1.57,2.54-1.54.73.01,1.38.14,1.98.33.45.14.76.41,1.46.33-1.04-.81-2.54-1.18-4.55-1.02-.6.03-1.22.03-1.8-.04-.37-.05-1.18-.35-1.52-.31-.02,0-.03,0-.05,0-.56-.09-1.18-.14-1.75-.22-1.37-.18-2.78-.29-4.1-.56-2.09-.43-3.42-1.16-3.98-2.15-.55-.98.6-1.53,2.79-1.31,1.52.16,2.97.37,3.95,1.04,1.41.97,3.57,1.56,5.85,2.05,2.06.45,4.16.86,5.98,1.5,1.86.66,1.85.8-.22,1.54.16,1.24,2.5,2.07,3.07,3.23,0,0,0,0,.01,0,.02.06.04.12.05.17-.64.34-1.64.51-2.24.88-.6.37-1.17.74-1.32,1.15-.23.16-.16.55-.15.67ZM74.68,109.45c-3.65.51-7.3.49-10.89-.14-.57-.1-1.19-.23-1.41-.58.59-.31,1.8-.19,2.33-.68-.69.01-1.41.2-2,.07,0,0,0-.02,0-.03,0-.1-.05-.19-.08-.28-.04-.1,0-.37-.07-.57.09-.19.22-.38.47-.56,1.72-1.26,4.89-1.62,7.77-.75,1.42.43,2.86.67,4.5.79,2.06.15,2.29.37,1.9,1.31-.29.69-1.04,1.21-2.53,1.42ZM73.96,111.7c.46-.28,1.06-.43,1.83-.41.36.01.71.03,1.07.05.04,0,.09.01.13.02.16.02.32.05.49.07.05,0,.11.01.16.01.26,1.02.2,2.06.86,3.06,1.11,1.71,2.62,3.32,5.55,4.83-2.46-.21-4.15-.59-5.41-1.35-.86-.52-1.48-1.09-2.11-1.67-.82-.75-1.61-1.5-2.68-2.19-1-.64-.91-1.82.11-2.44ZM85.54,121.76c-.98.22-2.03.33-3.11.34-5,.04-9.62-.52-13.77-1.8-1.25-.38-2.35-.85-2.99-1.49-.66-.65-.07-1.07,1.49-1.13,1.11-.04,2.11.14,3.09.34,1.57.33,2.95.79,4.34,1.24,1.22.39,2.42.8,3.78,1.1,1.16.25,2.33.5,3.68.35.09-.19-.24-.2-.47-.23-1.71-.17-3.17-.57-4.56-1.04-2.52-.84-4.84-1.82-7.9-2.28-.34-.05-.62-.15-.78-.31-.98-.95-1.62-1.93-.83-2.98.52-.68,1.44-.82,2.83-.46,1.01.26,1.73.66,2.4,1.09,1.21.76,2.16,1.59,3.1,2.42,1.64,1.46,3.98,2.52,7.79,2.68,1.42.06,2.03.63,3.11.89.47.78.34.92-1.2,1.26ZM88.7,120.36c-.52.43-.7.45-1.91.15.08-.51-.75-.81-1.37-1.13-3.56-1.79-5.29-3.94-6.1-6.27-.17-.48-.25-.97.02-1.44.44-.76,1.86-.99,3.31-.54.72.22,1.28.52,1.69.86,2.68,2.23,4.42,4.59,4.78,7.14.06.41.05.84-.41,1.23ZM90.35,119.88c-.47-.08-.44-.22-.41-.37.32-2.03-1.03-3.93-2.26-5.85-.63-.99-.75-2.02-.74-3.05,0-.13.04-.26.12-.38.4-.59,1.47-.73,2.41-.26,1.14.57,1.67,1.26,1.68,2.03.02.96.05,1.93.12,2.89.01.2-.2.45.5.64.34-.41.32-.81.32-1.21,0-.93.1-1.86.33-2.79.11-.45.31-.9.89-1.27.73-.48,1.89-.49,2.66-.03.29.17.57.39.65.6.46,1.25.66,2.48-1.09,3.61-1.88,1.21-2.71,2.6-3.03,4.1.57-.17.54-.42.72-.62.21-.24.32-.49.49-.74.88-1.24,2.19-2.37,4.31-3.28.73-.31,1.52-.59,2.48-.74,1.25-.2,1.88-.08,2.35.47.35.4.38.82.15,1.23-1.12,2.02-3.64,3.62-7.38,4.81-1.84.59-3.21.59-5.27.22ZM0,100.7v.35c.29.12.63.23,1.02.31-.34-.22-.69-.44-1.02-.66ZM0,105.15v.31c1.09.08,2.21.07,3.36-.06-1.19,0-2.31-.09-3.36-.25ZM77.37,143.44c-.24-1.59-3.12-2.89-6.69-2.31-.16.03-.28,0-.43-.13-.41-.81-.73-1.76-3.05-2.06-2.33-.29-3.67.45-4.92,1.14-.58-.18-1.03-.33-1.52-.46-2.63-.69-4.83-.28-5.53,1.04-.15.28-.09.58-.21.86-.06.15.32.4-.44.46-1.27-.94-2.58-1.87-4.12-2.73-.05-.03-.1-.06-.15-.09-.26-.15-.54-.3-.72-.47-.08-.08-.14-.16-.18-.24.15-.07.36-.1.62-.1,2.43,0,4.17-.57,5.64-1.36,2.74-1.48,4.28-3.18,4.2-5.12-.07-1.76-.91-3.36-5.93-3.94,1.53-.1,2.52-.14,3.48-.24,1.36-.14,3.04-.16,3.59-.86.59-.76-.6-1.33-1.56-1.89-.44-.26-1.02-.44-1.66-.6-.29-.07-.66-.1-.84-.23.65-.2,1.12-.59,1.45-.96.63-.46.83-1,.9-1.54.15-1.19-1.74-1.86-4.3-1.57-.46.05-.87.23-1.44.11,0-.22.01-.44,0-.66-.06-.79-.43-1.54-1.47-2.18-.93-.58-2.1-.65-3.3-.19-.54.2-.99.46-1.42.72-1.12.68-1.87,1.44-2.3,2.29-.56-.09-1.01-.21-1.48-.23-1.36-.07-1.79-.38-1.94-1-.2-.85-1.25-1.57-2.85-2.07-1.56-.49-3.3-.44-4.72.12-1.1.44-1.78,1-2.18,1.63-.18.27-.28.56-.5.82-.08,0-.16-.02-.24-.03-.32-.06-.59-.16-.85-.26-.55-.22-1.09-.45-1.6-.69-.58-.33-1.15-.66-1.7-.99-1.44-.89-1.4-1.48-.01-2.38.53-.34,1.12-.67,1.65-1.01,2.07-1.32,2.83-2.79,2.39-4.39-.2-.71-.67-1.39-1.72-1.94-1.08-.58-2.3-.7-3.84-.41-.37.07-.62.27-1.19.19-.55-.57-1.24-1.12-2.51-1.49-1.24-.37-2.67-.25-4.06-.32.22-.43.77-.66,1.13-.93,1.3-.97,2.49-1.95,2.99-3.08.32-.74.38-1.47-.28-2.18-.7-.74-1.71-1.01-3.52-.94-.27,0-.55.08-.81-.13.36-.93.69-1.91.55-2.91-.11-.88-.55-1.73-1.87-2.41-1.56-.81-3.51-.69-4.66.25-.23.19-.22.47-.84.51-1.9.12-2.26.78-2.6,1.45-.11.22-.08.45-.54.64-.51-.21-.95-.48-1.55-.62-.89-.2-.79-.44-.49-.77.73-.82.94-1.68.82-2.55-.11-.78-.46-1.53-1.52-2.18-1.22-.73-3.02-.94-4.53-.65v.54c.3-.07.63-.12,1.02-.13,1.36-.03,2.63.38,3.34,1.16,1.15,1.27,1.04,2.58.37,3.89-.13.25-.44.45-.99.6-2.22.58-3.49,1.45-3.73,2.64v.8c.38.2.63.47,1.37.56-.84-1.1-.69-2.1,1.17-2.97,1.72-.8,2.48-.78,3.72.17,1.44,1.1,1.77,2.29,1.41,3.54-.25.85-.73,1.68-1,2.53,1.95-1.6,2.67-3.3,1.86-5.09-.39-.87.07-1.65.58-2.45.16-.25.47-.5,1.13-.52.66-.02,1.02.21,1.29.44.67.58.91,1.21.99,1.86.24,1.78-.81,3.44-2.26,5.06-.28.31-.58.62-.73.96,2.93-1.94,4.55-4.06,4.22-6.42-.1-.74-.59-1.45-1.63-2.06-.68-.4-.52-.75.3-1.08.72-.29,1.51-.28,2.31.03.96.38,1.37.91,1.58,1.45.75,1.94.19,3.84-.94,5.72-.29.48-1.1.82-1.8,1.19-1.01.54-1.81,1.12-2.2,1.8,1.86-1.08,4.17-2.02,4.95-3.41.09-.15.28-.3.47-.43.5-.36,1.02-.74,2.16-.63,1.05.1,1.49.49,1.71.9.31.6.26,1.22-.11,1.82-.92,1.47-2.46,2.8-4.52,4.02-1.18.7-2.56,1.1-4.51.84-.09-.04-.16-.09-.21-.14.32-.49.44-.99-.3-1.5-.04.33-.02.61-.11.88-.01.03-.02.06-.03.09-.12.08-.22.16-.31.24-.04.04-.09.09-.14.13-.26.08-.63.08-1.14.02-.59-.07-1.04-.34-1.77-.26.56.28.97.47,1.35.57,0,0,0,.02,0,.03.07.17,1.09.11,1.34.1.68,0,1.36.09,1.92.27,1.1.62,1.85,1.26,1.33,2.18-.38.66-.07,1.39-.07,2.27-1.93-.51-3.82-.87-5.09-1.62-.94-.55-1.79-1.13-3.08-1.53-.17-.16-.28-.33-.26-.51.01-.19.16-.37.27-.54.23-.35.36-.73.13-1.08-.06-.1-.25-.21-.45-.16-.09.02-.14.07-.17.11-.25.34-.16.71-.3,1.05,0,.01-.01.03-.02.04-.04.08-.09.16-.16.24-.13.14-.34.27-.58.37-.11.05-.44.12-.56.2-.98.17-2.03.18-3.13.12v.35c.8,0,1.6-.01,2.4-.08,2-.17,2.11-.17,3.13.71-.52-.06-1-.11-1.48-.17-1.41-.16-2.77-.14-4.05.03v.66c2.31-.39,4.55-.25,6.54.39,2.15.7,4.42,1.29,6.7,1.88,2.02.52,3.37,1.38,4.78,2.17,1.27.72.72,1.16-1.36,1.24-.28.01-.57,0-.98,0-1.88-.09-3.82-.27-5.67-.63-2.29-.45-4.66-.79-7.1-1.04-1.04-.1-2.02-.26-2.92-.5v.81c.13.03.26.05.4.08.55.1,1.11.19,1.63.28-.17.26-.54.31-.81.41-.52.2-.93.41-1.22.63v1.59c.4.27,1.01.53,1.84.74,1.54.41,3.22.49,4.97.45,1.88-.05,3.65-.3,5.43-.53,1.79-.23,3.61-.37,5.47-.45.97-.04,1.58.1,2.1.48.92.69,2,1.33,2.97,2.01.4.28,1.07.51,1.05.92-.76,0-1.48-.02-2.18,0-.23,0-.44.03-.6.08-.07,0-.15.01-.21.03-.09.02-.15.06-.21.1-.16.11-.3.23-.35.35-.27.05-.57.06-.9.07-2.75.03-4.2.56-4.89,1.74-.45.77-.31,1.53.32,2.27.2.24.5.43-.15.67-2.14.79-2.5,1.9-2.46,3.05.03.79.77,1.49,1.64,2.2-1.66.42-2.98.95-3.82,1.68-.68.6-.64.99.46,1.38,1.95.68,3.76,1.48,6.45,1.75-.55.72-.2,1.42-.17,2.12.07,1.57,1.94,1.78,4.66,1.05.74-.2,1.39-.45,1.98-.74.48-.23.76-.55,1.45-.72,1.96.7,4.01,1.34,6.35,1.77,4.7.86,9.37,1.13,13.93-.28,2.23,1.44,3.73,3.02,5.7,4.61-2.27-.37-3.96-.34-5.1.06h6.09c-.5-.43-.95-.88-1.39-1.33-1.06-1.09-2.52-2.08-4.14-3.03-.56-.33-.91-.61-.38-1.03.5-.4.08-.86.02-1.33.52.3,1.05.58,1.6.85.17.23.75.57.88.66.46.31.95.62,1.47.91.05.03.24.13.49.26,1.83,1.27,3.37,2.62,4.86,3.97.03.02.05.05.08.07h1.58c-.36-.72-.58-1.45-.49-2.19.07-.57.03-1.25,1.37-1.52,1.46-.29,2.61.19,3.57.61,2,.88,3.13,1.93,3.43,3.1h1.14c-.03-.22-.08-.45-.15-.68-.25-.83-1.02-1.61-2.2-2.27-.72-.4-.48-.68.21-.99,1.12-.51,2.76-.7,3.89-.45,1.24.27,2.18,1.15,2.01,1.8-.06.22-.36.34-.66.47-1.33.6-1.99,1.32-2.21,2.11h1.34c.05-.12.11-.24.18-.37.37-.58,1.01-1.06,2.08-1.42,1.53-.52,3.1-.44,4.36.22.88.46,1.18,1,1.17,1.57h1.44c0-.12,0-.24-.02-.35ZM25.11,111.23c-.13-.9.08-1.8-.31-2.69-.14-.33-.34-.63.5-.84.93-.23,2.03-.21,2.8.1.72.29,1.12.66,1.34,1.08.86,1.59.49,3.13-1.25,4.57-.51.42-1.14.82-1.71,1.22-.82.58-1.5,1.18-1.27,1.89.03.09.03.15,0,.2-.02,0-.03,0-.04,0-.64,0-1.24-.13-1.76-.3-1.05-.55-2.28-1.04-2.97-1.71.07-.06.1-.14.19-.16,3.33-.63,4.71-1.77,4.48-3.37ZM13.86,107.52c-.22-.03-.41-.17-.52-.28-.23-.21.17-.27.5-.32.19-.03.41-.03.87-.06-.11.18-.12.28-.23.35-.18.11-.12.36-.62.3ZM16.79,112.95c-1.76-.68-2.97-1.47-2.55-2.42.04-1.33.37-2.48,1.89-3.47,1.68-1.09,4.57-1.04,6.16.08.23.16.41.34.58.51.16.18.31.36.41.55.63,1.26.82,2.54.78,3.82-.03.97-1.17,1.68-3.01,2.19-.78.21-1.38.29-1.93-.15-.57-.45-1.47-.78-2.34-1.11ZM19.23,116.76c-2.9-.16-5.69.11-8.46.42-1.94.22-3.9.38-5.93.31-1.33-.05-2.51-.25-3.47-.67-1.1-.48-1.17-1.01-.18-1.54,1.13-.61,2.53-.95,4.35-.68,1.29.19,2.57.4,3.83.61,2.09.35,4.24.58,6.48.58,1.52,0,3.03-.06,3.97-.86.7.41,1.08.86,1.73,1.2.12.08.27.16.34.19.08.04.16.08.24.11-.88.25-1.84.38-2.9.32ZM19.86,117.22c1.03-.22,2.12-.24,2.37-.73.76.32,1.74.54,2.74.67.64.23,1.18.51,1.73.8.57.29,1.09.62,1.69.91.16.11.33.22.53.32.27.13.58.24.87.36.55.24,1,.52,1.31.84.05.18.06.36.03.55-.09.66-.02,1.32-.02,2.16-1.78-.93-3.49-1.63-5.52-2.16-.29-.08-.51-.22-.68-.36-1.45-1.17-2.85-2.36-5.05-3.34ZM16.87,122.07c.84-.37,1.9-.42,3-.26.89.13,1.69.35,2.42.61,2.86,1.04,5.33,2.24,7.26,3.65.49.36.9.73,1.13,1.14.55.99-.47,1.58-2.72,1.52-.43,0-.85-.06-1.27-.1,2.53.77,4.75.33,5.1-1.01.06-.25.05-.49.48-.68-.63-.1-.89-.34-1.18-.6-2.24-2.01-5.24-3.73-9.63-4.89-.19-.05-.36-.1-.5-.17.06-.15.12-.3.28-.41,1.18-.1,2.28.06,3.29.33,3.58.95,6.24,2.29,8.06,3.97.66.61.67,1.19-.21,1.75,1.04-.05,1.27-.4,1.34-.8.11-.67-.35-1.27-1.06-1.83-.52-.41-.7-.82-.65-1.28.14-1.25.06-2.5.72-3.73.33-.63.81-1.23,1.73-1.74,1.18-.66,2.6-.74,4.13-.25,1.13.36,1.88.87,2.4,1.44.71.78.7.8-1.04,1.17-1.93.42-2.79,1.32-2.28,2.35.41.82,1.6,1.4,2.81,1.98,2.14.37,4.37.1,6.69.2-.84-.52-1.96-.39-2.97-.39-2.76,0-4.5-.58-5.2-1.74-.38-.62-.36-1.23.72-1.71,1.1-.49,2.42-.46,3.8-.26,1.2.17,2.15.5,2.98.91.47.23.9.47,1.44.68-.22-.48-.82-.86-1.56-1.19-.6-.26-.67-.51-.39-.86.65-.8,1.62-1.5,2.91-2.12,1.13-.54,1.86-.51,2.67.13,1.2.94,1.39,1.94.87,2.98-.09.18-.43.34-.16.54.42-.1.52-.29.72-.46.59-.49,1.83-.69,3.31-.59,1.17.08,1.64.43,1.92.91.23.39.11.76-.04,1.14-.08.19-.23.37-.38.55-.1.11-.21.21-.33.31-.37.29-.86.52-1.54.66-.2.04-.36.05-.37.11-.47.02-.97.03-1.56.05.87.12,1.45.22,2.05.29,1.99.24,3.09.88,3.78,1.7.44.53.3.72-.89.86-4.95.59-8.13.68-11.4-1.19-.22-.12-.51-.22-.82-.36.55,1.08,2.6,1.98,5.15,2.31.64.08,1.61-.02,1.83.36.22.39-.35.74-.88,1.05-.65.38-1.55.54-2.63.53-2.8-.02-5.08-.97-5.35-2.31-.11-.56-.02-1.12-.26-1.67-.95,1.25-1.24,2.48.92,3.57.36.18.85.33.93.59-.29.03-.55.27-.8.07-.9-.73-1.81-1.44-3.27-1.98-.41-.15,1.04-.35-.1-.48-.46-.05-.87-.21-1.29-.32-2.11-.57-2.58-1.52-1.22-2.44.21-.14.44-.28.66-.42-2.84.49-3.18,1.62-.76,3.04-1.51-.04-2.89.02-4.04.33-.8-.22-.57-.66-1.47-.88.07.03-.07.08,0,.13.81.61.72,1.11-.35,1.7-1.06.58-1.01,1.38-.95,2.23-1.79-.39-3.58-.61-4.94-1.19-.77-.33-1.63-.54-2.63-.62.29-.08.57-.17.84-.27.12-.04.25-.1.25-.17,0-.02-.01-.04-.03-.06,0,0,.02,0,.02,0-.1-1.62-1.29-2.15-4.97-2.2-1.15-.02-2.23-.12-3.34-.28-1.85-.26-2.6-.83-2.74-1.63-.16-.87.14-1.68,1.58-2.31ZM21.16,138.5c-.46.15-.96.29-1.49.38-.99.17-1.46.06-1.67-.42-.28-.66-.46-1.33-.58-2-.08-.43.24-.77,1.2-1.03,1.61-.44,2.5-1.11,2.38-1.99-.56.67-1.3,1.27-2.72,1.65-1.23.33-2.38.36-3.55-.08-.99-.37-2.03-.71-3.09-1.04-.94-.29-1.12-.63-.61-1.07.61-.52,1.45-.95,2.42-1.34.53-.22.98-.18,1.5.01,1.01.37,2.13.61,3.52.54-.08-.35-.63-.26-.98-.32-2.02-.36-3.19-1.05-3.77-1.97-.66-1.04-.41-2.04.78-2.98.68-.54,1.23-.65,2.47-.39,1.5.31,3.02.37,4.6.33.07,0,.14,0,.21,0,3.38.05,4.46.88,2.88,2.2.07,0,.13,0,.19,0,0,0,0,0,0,.01-.06,0-.11,0-.17,0-.18.07-.52.25-.21.24,1.51-.07,2.36.34,3.24.77.84.41,1.96.63,3.03.89.94.23,1.89.46,2.56.85,1.04.61.88,1.26-.53,1.66-2.01.57-4.3.57-6.58.52-.3-.06-.57-.15-.8-.26-.11-.08-.22-.16-.37-.21-.03-.03-.07-.05-.1-.08-.17-.15-.28-.32-.5-.46-.18-.11-.62-.23-.84-.14-.03,0-.05-.02-.08-.03.02.01.03.03.05.04-.04.03-.07.06-.08.11-.05.2.56.42.81.56.39.22.7.46.93.72,1.03,1.62-1.45,3.48-4.08,4.35ZM43.14,138.49c-.93-.15-1.77-.41-2.64-.63-1.12-.28-2.23-.57-3.36-.85-.08-.02-.25.03-.49.06,1.81.88,4.13,1.34,6.76,1.77-1.67.49-3.2.35-4.66.17-2.23-.27-4.19-.81-6.05-1.41-.69-.22-1.39-.44-2.22-.71,1.04.99,3.03,1.65,7.69,2.56-1.35.15-2.58,0-3.81-.13-3.12-.31-5.85-1-8.54-1.74-.61-.17-.72-.34-.41-.63.9-.83,1.1-1.72.76-2.71,3.47.08,6.74.21,8.96-1.22,2.8,1.4,5.85,2.61,8.95,3.79.62.24,1.11.49,1.21.87.19.72-.65,1.06-2.16.81ZM46.12,136.48c-.28.29-.72.45-1.29.2-3.14-1.4-6.57-2.68-9.03-4.35-1.09-.74-1.6-1.57-1.41-2.47.34-1.62,3.68-2.35,6.71-1.46,1.88.55,2.89,1.4,3.66,2.31.56.66.9,1.36,1.13,2.05.27.82.6,1.65.57,2.49,0,.42.04.83-.34,1.23ZM47.06,136.23c.75-1.51.24-3.01-.33-4.49-.24-.63-.42-1.25-.21-1.89.72-.11,1.35.08,2.01.15,2.75.28,4.31-.08,5.46-1.25.52-.52.81-.56,1.89-.28.78.2,1.29.51,1.71.84.94.75,1.33,1.57,1.22,2.41-.24,1.84-1.61,3.51-4.16,4.97-1.04.6-2.31,1.05-4,1.21-2.41.23-4.13-.59-3.59-1.67Z"/>
    <path class="cls-2" d="M89.42,67.27s.08.04.11.05c-.02-.03-.04-.05-.06-.08h-.03s.03,0,.03,0c-.02,0-.04,0-.05,0,0,0,0,.01,0,.02h0Z"/>
    <path class="cls-2" d="M127.7,66.5s0-.01,0-.02c-.01,0-.03,0-.04,0h0s0,.02,0,.02c.01,0,.03,0,.04,0h0Z"/>
    <path class="cls-2" d="M32.34,126.96s.03-.02.05-.03c-.03,0-.05,0-.08,0,0,0,.03.03.03.03Z"/>
    <path class="cls-2" d="M80.42,59.74s.02,0,.03,0c0,0,0-.02.02-.03l-.04.02Z"/>
    <path class="cls-2" d="M71.65,53.71c1.64,1.24,2.71,2.62,4.38,3.86.5.37.82.8,1.35,1.19.21-.37.05-.72-.29-1.06-.71-.7-1.42-1.4-2.14-2.1-.94-.92-1.62-1.86-1.46-2.88.05-.31-.08-.65.55-.89,1.84.62,2.14,1.07,4.11,6.23.3-1.36,0-2.49.1-3.62.03-.32.02-.65.17-.96.17-.32.6-.6,1.39-.67.81-.08,1.39.14,1.8.41,1.2.81,1.55,1.72,1.21,2.67-.36,1-1.49,1.87-2.47,2.76-.39.36-.96.72.06,1.05-.11-.34.02-.64.54-.94,1.18-.69,2.12-1.45,2.69-2.29.76-1.13.64-2.22-.73-3.25-1.55-1.16-3.69-1.13-5.13.06-.1.08-.19.1-.43,0-.05-.05-.21-.16-.28-.28-.34-.53-.74-1.04-1.46-1.49-.43-.27-.96-.51-1.77-.44-.78.07-1.15.36-1.41.67-.31.37-.27.76-.23,1.14.03.29-.37.27-.76.29-.05.19,0,.36.21.53Z"/>
    <path class="cls-2" d="M71.43,53.18s0-.02,0-.02c-.02-.01-.04-.02-.06-.03,0,.02,0,.04,0,.06.02,0,.03,0,.05,0Z"/>
    <path class="cls-2" d="M80.46,59.72s-.03-.01-.05-.02c0,.01,0,.02,0,.04,0,0,.04-.02.04-.02Z"/>
    <path class="cls-2" d="M136.26,72.66s-.02.01-.02.02c.02,0,.04,0,.07,0,0,0,0-.02,0-.02-.02,0-.03,0-.04,0h0Z"/>
    <path class="cls-2" d="M129.45,62.34c-1.8-.46-3-1.17-4.19-1.89-1.13-.69-1.88-1.49-2.94-2.2.92,1.96,4.09,4.18,7.13,4.09Z"/>
    <path class="cls-2" d="M147.24,36.64c-.43.52-1.33.98-1.33,1.56,1.17-.41,1.22-.99,1.33-1.56Z"/>
    <path class="cls-2" d="M61.04,105.48c.94-.25,1.64-.61,2.37-.98q-1.83.28-2.37.98Z"/>
    <path class="cls-2" d="M54.12,106.58c.73.15,1.04-.06,1.5-.21-.65-.08-1.02.07-1.5.21Z"/>
    <path class="cls-2" d="M51.73,123.2c-1.22.24-2.01.44-2.65.75,1.01-.05,2.01-.11,2.65-.75Z"/>
    <path class="cls-2" d="M49.57,125.01c.74.33,1.48.45,2.54.31-.88-.16-1.54-.4-2.54-.31Z"/>
    <path class="cls-2" d="M136.45,60.88c-.34.46-.79.9.09,1.37.34-.51.14-.95-.09-1.37Z"/>
    <path class="cls-2" d="M173.2,142.28c-1.02-5.2-2.6-10.37-2.76-15.6-1.46,5.29.08,10.46,2.76,15.6Z"/>
    <path class="cls-2" d="M191.98,89.96c-1.02,1.72.49,3.29,1.49,4.89.52-1.69-1.75-3.21-1.49-4.89Z"/>
    <path class="cls-2" d="M229.03,141.8c-.18.83-.89,1.44-1.77,1.99h-.57c.54-.66,1.23-1.31,2.34-1.99Z"/>
    <path class="cls-2" d="M134.1,98.86c1.38,1.54,4.03,2.54,6.26,3.66-.57-.89-3.1-2.34-6.26-3.66Z"/>
    <path class="cls-2" d="M158.14,101.77c-2.48.83-5.42,1.28-8.11,1.94,3.36-.08,5.97-.81,8.11-1.94Z"/>
    <path class="cls-2" d="M305.31,96.08c-1.49.74-2.92,1.46-4.48,2.24,2.3-.36,3.91-1.18,4.48-2.24Z"/>
    <path class="cls-2" d="M314.09,95.25s-.03.01-.04.02c.03,0,.05,0,.08,0,0,0,0,0,.01-.02-.02,0-.03,0-.05,0h0Z"/>
    <path class="cls-2" d="M310.56,95.98c.51.03.76-.29,1.32-.19.32.24-.2.54.4.84.16-.61.86-1.01,1.77-1.35-1.86-.09-3.76.3-3.48.71Z"/>
    <path class="cls-2" d="M317.1,98.07c-.28-.38-.46-.61-1.13-.71.03.33.39.5,1.13.71Z"/>
    <path class="cls-2" d="M314.13,95.26c.6.05,1.17.07,1.31-.32-.54.03-1.08.05-1.31.32Z"/>
    <path class="cls-2" d="M313.81,96.01c-.04.06-.13.13-.1.18.08.14.24.37.62.23.18-.07-.08-.33-.52-.41Z"/>
    <path class="cls-2" d="M240.3,24.2c-1.77,2.1-.73,4.05,1.46,5.91-1.23-1.95-1.83-3.9-1.46-5.91Z"/>
    <path class="cls-2" d="M254.21,116.42c-.7,1.39-1.73,2.73-3.02,4.07,2.59-1.1,3.04-2.55,3.02-4.07Z"/>
    <path class="cls-2" d="M239.82,119.3c.58.75,1.35,1.13,2.88,1.49-.91-.61-1.6-1.02-2.88-1.49Z"/>
    <path class="cls-2" d="M256.31,125.02c-1.09-.45-1.62-.9-2.7-1.1.36.53,1.03.92,2.7,1.1Z"/>
    <path class="cls-2" d="M18.22,128.09c1.21.56,1.77,1.29,2.69,1.93-.18-1.1-.55-1.36-2.69-1.93Z"/>
    <path class="cls-2" d="M22.82,131.31c1.26.11,2.07.18,3.42.3-1.11-.46-1.97-.51-3.42-.3Z"/>
    <path class="cls-2" d="M218.26,45.81c-.61.9-.59.9-.12,1.45.68-.99,1.54-1.97.81-3.04-.14.54-.34,1.07-.69,1.59Z"/>
    <path class="cls-2" d="M210.62,45.06c.82,1.05,1.91,1.73,3.99,2.01-1.47-.52-2.25-1.33-3.99-2.01Z"/>
    <path class="cls-2" d="M212.41,48.8c.64-.09,1.37-.1,1.94-.48q-1.27.15-1.94.48Z"/>
    <path class="cls-2" d="M246.25,53.14c-.07-.41-.12-.71-.17-1.02-.67.36-.81.68.17,1.02Z"/>
    <path class="cls-2" d="M250.57,50.27c-1.15.05-1.81.2-2.48.52,1.02.01,1.74-.11,2.48-.52Z"/>
    <path class="cls-2" d="M99.49,115.17c-1.18.91-2.36,1.81-3.55,2.72,2.15-.67,3.16-1.62,3.55-2.72Z"/>
    <path class="cls-2" d="M73.87,116.77c-.16-.12-.42-.3-.71-.47-.37-.35-.59-.43-1.55-.78.19.23.32.4.45.52-.24.26,1.49,1.02,1.85,1.13.11,0,.19-.05.21-.1.03,0,.07.02.1.02,0-.15-.12-.26-.35-.33Z"/>
    <path class="cls-2" d="M55.16,129.91c-.1,1.04-.16,1.97-.62,2.88-.47.93-.99,1.86-1.58,2.95,2.34-1.12,3.33-4.06,2.19-5.83Z"/>
    <path class="cls-2" d="M50.54,134.14c.65-.59.27-1.11.03-1.63-.16.51-.46,1.04-.03,1.63Z"/>
    <path class="cls-2" d="M255.5,17.51c-.92,1.66-2.1,3.21-3.38,4.75,2.36-1.18,3.78-3.23,3.38-4.75Z"/>
    <path class="cls-2" d="M36.44,124.54c-.75-1.69-1.65-3.38-1.25-5.13-1.82,2.44.15,4.71,1.32,7.03.28-.64.2-1.27-.08-1.9Z"/>
    <path class="cls-2" d="M209.83,65.63c.32,1.33.39,2.67.77,4.01.87-1.37.44-2.7-.77-4.01Z"/>
    <path class="cls-2" d="M234.65,44.56c1.95-.94,2.75-1.74,2.73-2.66-1.01.91-2.13,1.73-2.73,2.66Z"/>
    <path class="cls-2" d="M245.77,44.58q1.64-.85,1.72-1.64c-.73.46-1.31.91-1.72,1.64Z"/>
    <path class="cls-2" d="M227.87,42.15c.9-.96.92-1.07.44-1.9-.71.6-.35,1.2-.44,1.9Z"/>
    <path class="cls-2" d="M309.77,118.9c-4.05.49-8.16.66-12.24.91,4.36.4,8.42-.02,12.24-.91Z"/>
    <path class="cls-2" d="M265.28,20.54c-1.24.57-2.26,1.22-3.53,1.77-1.33.58-2.8,1.08-4.22,1.6,4.02-.48,6.13-1.82,7.75-3.37Z"/>
    <path class="cls-2" d="M239.21,109.53c-.18.76-.98,1.5-.5,2.43.99-.87.7-1.65.5-2.43Z"/>
    <path class="cls-2" d="M84.55,114.54c.95,1.39,1.3,2.66,2.57,3.91.23-1.16-.83-2.81-2.57-3.91Z"/>
    <path class="cls-2" d="M295.87,116.42c2.08-.96,3.23-2.14,3.92-3.43-1.52,1.09-3,2.2-3.92,3.43Z"/>
    <path class="cls-2" d="M203.3,67.66c.09.45.39.64,1.14.78-.12-.35-.46-.55-1.14-.78Z"/>
    <path class="cls-2" d="M246.44,21.61c-.19.45-.46.9.02,1.46.42-.56.25-1.01-.02-1.46Z"/>
    <path class="cls-2" d="M245.14,126.57c.11-.87,1.39-1.5,2.11-2.26-1.89.52-2.54,1.29-2.11,2.26Z"/>
    <path class="cls-2" d="M244.49,136.95c-3.87.58-7.88.91-11.88,1.26,4.36.33,8.18-.33,11.88-1.26Z"/>
    <path class="cls-2" d="M227.82,125.74c-.12-1.08-1.19-1.74-2.49-2.32.72.74,1.18,1.52,2.49,2.32Z"/>
    <path class="cls-2" d="M229.36,122.19c-.35-1.46-2.81-2.39-4.43-3.53.9,1.32,2.84,2.38,4.43,3.53Z"/>
    <path class="cls-2" d="M307.91,108.43c2.16-.2,3.43-.73,4.64-1.29-1.55.31-3.17.58-4.64,1.29Z"/>
    <path class="cls-2" d="M227.58,137.36c-1.32.48-2.53,1.02-3.42,1.68,1.76-.29,2.59-.98,3.42-1.68Z"/>
    <path class="cls-2" d="M297.87,107.31c.25.5.61.95,1.5,1.33q-.34-.85-1.5-1.33Z"/>
    <path class="cls-2" d="M239.19,113.38c-.47.85-1.72,1.58-1.79,2.48,1.27-.73,2.01-1.54,1.79-2.48Z"/>
    <path class="cls-2" d="M237.73,125.41c1.46-.52,2.8-.97,3.44-1.72-.06-.02-.11-.05-.17-.07-1.99.73-2.64,1.08-3.27,1.79Z"/>
    <path class="cls-2" d="M241,123.62c.06.02.11.05.17.07.52-.12.76-.33,1-.7-.62.23-1.05.37-1.18.63Z"/>
    <path class="cls-2" d="M233.98,123.42c.91-.4,1.39-.91,1.47-1.61-.92.53-1.33,1.03-1.47,1.61Z"/>
    <path class="cls-2" d="M136.8,83.42c.16-1.8-2.25-3.12-4.2-4.52,1.2,1.55,3.01,2.97,4.2,4.52Z"/>
    <path class="cls-2" d="M143.78,83.81c3.74-.07,6.8-.81,9.41-1.97-3.01.77-6.22,1.34-9.41,1.97Z"/>
    <path class="cls-2" d="M124.02,36.09c-2.33.57-2.68.78-2.93,1.75.49-.31.96-.63,1.47-.93.47-.28.97-.55,1.46-.82Z"/>
    <path class="cls-2" d="M117.39,35.8c.37.75.54,1.3,1.55,1.74,0-.59-.54-1.09-1.55-1.74Z"/>
    <path class="cls-2" d="M128.67,102.47c-1.07-.54-2.39-1.2-3.7-1.85.61.99,2.21,1.52,3.7,1.85Z"/>
    <path class="cls-2" d="M60.07,81.93c-2.5.81-2.88,1.1-2.58,1.9.76-.67,1.5-1.33,2.58-1.9Z"/>
    <path class="cls-2" d="M52.98,82.16c-.14-.6-.75-.89-1.89-1.27.42.59.9.92,1.89,1.27Z"/>
    <path class="cls-2" d="M54.84,86.75c.26-.47.44-.79.75-1.34-1.14.45-.99.81-.75,1.34Z"/>
    <path class="cls-2" d="M48.28,84.52c-.96-.14-1.66.02-2.54.24,1.03,0,1.83.05,2.54-.24Z"/>
    <path class="cls-2" d="M53.88,84.63c.3-.06.54-.18,1.14-.38-1.19.04-1.76.18-2.24.48.53.1.8-.04,1.09-.1Z"/>
    <path class="cls-2" d="M90.57,97.81c-1.86.6-3.47,1.31-5.8,1.39,2.87.17,4.77-.28,5.8-1.39Z"/>
    <path class="cls-2" d="M77.14,98.86c1.07.14,2.13.28,3.19.42q-1.4-.58-3.19-.42Z"/>
    <path class="cls-2" d="M82.7,99.56c.23.67.2.67,1.09,1.11-.03-.41-.26-.75-1.09-1.11Z"/>
    <path class="cls-2" d="M72.6,101.54s-.03-.01-.05-.02h0s0,.04,0,.07c.02-.01.03-.03.05-.04,0,0,0,0,0,0Z"/>
    <path class="cls-2" d="M73.49,101.47c-.72-.57.7-.35,1.03-.57-.85-.06-1.64-.12-2.33.06-.02.27.54.37.41.58.21.08.41.19.63.19.4.01.38-.17.27-.26Z"/>
    <path class="cls-2" d="M45.84,88.79c1.33.72,2.94,1.23,4.65,1.88-1.68-1.19-2.82-1.64-4.65-1.88Z"/>
    <path class="cls-2" d="M59.44,95.41c2.15,1.06,3.78,2.29,5.79,3.39-.8-1.51-3.12-2.52-5.79-3.39Z"/>
    <path class="cls-2" d="M64.13,93.14c1.81,1.35,3.96,2.62,4.96,4.17-.21-1.73-1.89-3.11-4.96-4.17Z"/>
    <path class="cls-2" d="M75.63,86.95c-.69.47-.88.91-1.1,1.34-.21.39-.73.76-.61,1.21,1.5-1.05,1.77-1.42,1.72-2.54Z"/>
    <path class="cls-2" d="M53.89,70.67v3.69c1.25-1.24.78-2.46,0-3.69Z"/>
    <path class="cls-2" d="M69.94,84.72c-.8.77-1.5,1.55-1.78,2.39,1.44-.68,1.58-1.54,1.78-2.39Z"/>
    <path class="cls-2" d="M46.58,71.82l1.39,3.43c.86-1.25-.19-2.35-1.39-3.43Z"/>
    <path class="cls-2" d="M82.08,106.51c-.83.33-1.66.65-2.48.98,1.51-.05,2.11-.46,2.48-.98Z"/>
    <path class="cls-2" d="M19.24,100.38c-.65,1.5-2.33,2.83-3.51,4.23,2.55-1.18,3.59-2.61,3.51-4.23Z"/>
    <path class="cls-2" d="M3.84,110.82c3.35,1.15,7.5,1.66,10.83,2.83-2.61-1.73-7.01-2.05-10.83-2.83Z"/>
    <path class="cls-2" d="M21.07,108.52c.78,1.58.48,3.02-.32,4.56,2.08-1.22,2.24-3.28.32-4.56Z"/>
    <path class="cls-2" d="M27.33,109.9c.23,1.71-1.39,3.21-2.66,4.76,2.77-1.38,3.56-2.98,2.66-4.76Z"/>
    <path class="cls-2" d="M301.09,48.54c-1.26.89-1.35,1.86-1.12,3.06,1.11-1.13.56-2.13,1.12-3.06Z"/>
    <path class="cls-2" d="M305.39,47.64q-.93.7-.84,1.29c.59-.34.95-.71.84-1.29Z"/>
    <path class="cls-2" d="M311.8,41.88c-.54.57-1.09.95-1,1.58.74-.52,1.29-.89,1-1.58Z"/>
    <path class="cls-2" d="M311.23,48.78c-1.74.87-3.47,1.74-5.21,2.61,2.71-.47,4.1-1.47,5.21-2.61Z"/>
    <path class="cls-2" d="M295.41,49.57q.1.66,1,1.15c-.49-.35-.03-.86-1-1.15Z"/>
  </g>
</svg>